<?xml version="1.0" encoding="utf-8" standalone="no"?>
<!DOCTYPE svg PUBLIC "-//W3C//DTD SVG 1.1//EN"
  "http://www.w3.org/Graphics/SVG/1.1/DTD/svg11.dtd">
<svg xmlns:xlink="http://www.w3.org/1999/xlink" width="1008pt" height="388.8pt" viewBox="0 0 1008 388.8" xmlns="http://www.w3.org/2000/svg" version="1.1">
 <metadata>
  <rdf:RDF xmlns:dc="http://purl.org/dc/elements/1.1/" xmlns:cc="http://creativecommons.org/ns#" xmlns:rdf="http://www.w3.org/1999/02/22-rdf-syntax-ns#">
   <cc:Work>
    <dc:type rdf:resource="http://purl.org/dc/dcmitype/StillImage"/>
    <dc:format>image/svg+xml</dc:format>
    <dc:creator>
     <cc:Agent>
      <dc:title>Matplotlib v3.11.1, https://matplotlib.org/</dc:title>
     </cc:Agent>
    </dc:creator>
   </cc:Work>
  </rdf:RDF>
 </metadata>
 <defs>
  <style type="text/css">*{stroke-linejoin: round; stroke-linecap: butt}</style>
 </defs>
 <g id="figure_1">
  <g id="patch_1">
   <path d="M 0 388.8
L 1008 388.8
L 1008 0
L 0 0
z
" style="fill: #ffffff"/>
  </g>
  <g id="axes_1">
   <g id="patch_2">
    <path d="M 120.96 311.04
L 372.96 311.04
L 372.96 89.424
L 120.96 89.424
z
" style="fill: #ffffff"/>
   </g>
   <g id="matplotlib.axis_1">
    <g id="xtick_1">
     <g id="line2d_1">
      <path d="M 120.96 311.04
L 120.96 89.424
" clip-path="url(#p0fd8fde0d6)" style="fill: none; stroke: #dfe4e9; stroke-width: 0.7; stroke-linecap: square"/>
     </g>
     <g id="line2d_2">
      <defs>
       <path id="m8aa7c51af2" d="M 0 0
L 0 3.5
" style="stroke: #000000; stroke-width: 0.8"/>
      </defs>
      <g>
       <use xlink:href="#m8aa7c51af2" x="120.96" y="311.04" style="stroke: #000000; stroke-width: 0.8"/>
      </g>
     </g>
     <g id="text_1">
      <!-- 0.0 -->
      <g transform="translate(112.213281 326.397422) scale(0.11 -0.11)">
       <defs>
        <path id="DejaVuSans-13" d="M 2034 4250
Q 1547 4250 1301 3770
Q 1056 3291 1056 2328
Q 1056 1369 1301 889
Q 1547 409 2034 409
Q 2525 409 2770 889
Q 3016 1369 3016 2328
Q 3016 3291 2770 3770
Q 2525 4250 2034 4250
z
M 2034 4750
Q 2819 4750 3233 4129
Q 3647 3509 3647 2328
Q 3647 1150 3233 529
Q 2819 -91 2034 -91
Q 1250 -91 836 529
Q 422 1150 422 2328
Q 422 3509 836 4129
Q 1250 4750 2034 4750
z
" transform="scale(0.015625)"/>
        <path id="DejaVuSans-11" d="M 684 794
L 1344 794
L 1344 0
L 684 0
L 684 794
z
" transform="scale(0.015625)"/>
       </defs>
       <use xlink:href="#DejaVuSans-13"/>
       <use xlink:href="#DejaVuSans-11" transform="translate(63.625 0)"/>
       <use xlink:href="#DejaVuSans-13" transform="translate(95.40625 0)"/>
      </g>
     </g>
    </g>
    <g id="xtick_2">
     <g id="line2d_3">
      <path d="M 170.613216 311.04
L 170.613216 89.424
" clip-path="url(#p0fd8fde0d6)" style="fill: none; stroke: #dfe4e9; stroke-width: 0.7; stroke-linecap: square"/>
     </g>
     <g id="line2d_4">
      <g>
       <use xlink:href="#m8aa7c51af2" x="170.613216" y="311.04" style="stroke: #000000; stroke-width: 0.8"/>
      </g>
     </g>
     <g id="text_2">
      <!-- 0.5 -->
      <g transform="translate(161.866497 326.397422) scale(0.11 -0.11)">
       <defs>
        <path id="DejaVuSans-18" d="M 691 4666
L 3169 4666
L 3169 4134
L 1269 4134
L 1269 2991
Q 1406 3038 1543 3061
Q 1681 3084 1819 3084
Q 2600 3084 3056 2656
Q 3513 2228 3513 1497
Q 3513 744 3044 326
Q 2575 -91 1722 -91
Q 1428 -91 1123 -41
Q 819 9 494 109
L 494 744
Q 775 591 1075 516
Q 1375 441 1709 441
Q 2250 441 2565 725
Q 2881 1009 2881 1497
Q 2881 1984 2565 2268
Q 2250 2553 1709 2553
Q 1456 2553 1204 2497
Q 953 2441 691 2322
L 691 4666
z
" transform="scale(0.015625)"/>
       </defs>
       <use xlink:href="#DejaVuSans-13"/>
       <use xlink:href="#DejaVuSans-11" transform="translate(63.625 0)"/>
       <use xlink:href="#DejaVuSans-18" transform="translate(95.40625 0)"/>
      </g>
     </g>
    </g>
    <g id="xtick_3">
     <g id="line2d_5">
      <path d="M 220.266431 311.04
L 220.266431 89.424
" clip-path="url(#p0fd8fde0d6)" style="fill: none; stroke: #dfe4e9; stroke-width: 0.7; stroke-linecap: square"/>
     </g>
     <g id="line2d_6">
      <g>
       <use xlink:href="#m8aa7c51af2" x="220.266431" y="311.04" style="stroke: #000000; stroke-width: 0.8"/>
      </g>
     </g>
     <g id="text_3">
      <!-- 1.0 -->
      <g transform="translate(211.519713 326.397422) scale(0.11 -0.11)">
       <defs>
        <path id="DejaVuSans-14" d="M 794 531
L 1825 531
L 1825 4091
L 703 3866
L 703 4441
L 1819 4666
L 2450 4666
L 2450 531
L 3481 531
L 3481 0
L 794 0
L 794 531
z
" transform="scale(0.015625)"/>
       </defs>
       <use xlink:href="#DejaVuSans-14"/>
       <use xlink:href="#DejaVuSans-11" transform="translate(63.625 0)"/>
       <use xlink:href="#DejaVuSans-13" transform="translate(95.40625 0)"/>
      </g>
     </g>
    </g>
    <g id="xtick_4">
     <g id="line2d_7">
      <path d="M 269.919647 311.04
L 269.919647 89.424
" clip-path="url(#p0fd8fde0d6)" style="fill: none; stroke: #dfe4e9; stroke-width: 0.7; stroke-linecap: square"/>
     </g>
     <g id="line2d_8">
      <g>
       <use xlink:href="#m8aa7c51af2" x="269.919647" y="311.04" style="stroke: #000000; stroke-width: 0.8"/>
      </g>
     </g>
     <g id="text_4">
      <!-- 1.5 -->
      <g transform="translate(261.172928 326.397422) scale(0.11 -0.11)">
       <use xlink:href="#DejaVuSans-14"/>
       <use xlink:href="#DejaVuSans-11" transform="translate(63.625 0)"/>
       <use xlink:href="#DejaVuSans-18" transform="translate(95.40625 0)"/>
      </g>
     </g>
    </g>
    <g id="xtick_5">
     <g id="line2d_9">
      <path d="M 319.572863 311.04
L 319.572863 89.424
" clip-path="url(#p0fd8fde0d6)" style="fill: none; stroke: #dfe4e9; stroke-width: 0.7; stroke-linecap: square"/>
     </g>
     <g id="line2d_10">
      <g>
       <use xlink:href="#m8aa7c51af2" x="319.572863" y="311.04" style="stroke: #000000; stroke-width: 0.8"/>
      </g>
     </g>
     <g id="text_5">
      <!-- 2.0 -->
      <g transform="translate(310.826144 326.397422) scale(0.11 -0.11)">
       <defs>
        <path id="DejaVuSans-15" d="M 1228 531
L 3431 531
L 3431 0
L 469 0
L 469 531
Q 828 903 1448 1529
Q 2069 2156 2228 2338
Q 2531 2678 2651 2914
Q 2772 3150 2772 3378
Q 2772 3750 2511 3984
Q 2250 4219 1831 4219
Q 1534 4219 1204 4116
Q 875 4013 500 3803
L 500 4441
Q 881 4594 1212 4672
Q 1544 4750 1819 4750
Q 2544 4750 2975 4387
Q 3406 4025 3406 3419
Q 3406 3131 3298 2873
Q 3191 2616 2906 2266
Q 2828 2175 2409 1742
Q 1991 1309 1228 531
z
" transform="scale(0.015625)"/>
       </defs>
       <use xlink:href="#DejaVuSans-15"/>
       <use xlink:href="#DejaVuSans-11" transform="translate(63.625 0)"/>
       <use xlink:href="#DejaVuSans-13" transform="translate(95.40625 0)"/>
      </g>
     </g>
    </g>
    <g id="xtick_6">
     <g id="line2d_11">
      <path d="M 369.226078 311.04
L 369.226078 89.424
" clip-path="url(#p0fd8fde0d6)" style="fill: none; stroke: #dfe4e9; stroke-width: 0.7; stroke-linecap: square"/>
     </g>
     <g id="line2d_12">
      <g>
       <use xlink:href="#m8aa7c51af2" x="369.226078" y="311.04" style="stroke: #000000; stroke-width: 0.8"/>
      </g>
     </g>
     <g id="text_6">
      <!-- 2.5 -->
      <g transform="translate(360.479359 326.397422) scale(0.11 -0.11)">
       <use xlink:href="#DejaVuSans-15"/>
       <use xlink:href="#DejaVuSans-11" transform="translate(63.625 0)"/>
       <use xlink:href="#DejaVuSans-18" transform="translate(95.40625 0)"/>
      </g>
     </g>
    </g>
    <g id="text_7">
     <!-- CPU-s -->
     <g transform="translate(230.928359 341.397422) scale(0.11 -0.11)">
      <defs>
       <path id="DejaVuSans-26" d="M 4122 4306
L 4122 3641
Q 3803 3938 3442 4084
Q 3081 4231 2675 4231
Q 1875 4231 1450 3742
Q 1025 3253 1025 2328
Q 1025 1406 1450 917
Q 1875 428 2675 428
Q 3081 428 3442 575
Q 3803 722 4122 1019
L 4122 359
Q 3791 134 3420 21
Q 3050 -91 2638 -91
Q 1578 -91 968 557
Q 359 1206 359 2328
Q 359 3453 968 4101
Q 1578 4750 2638 4750
Q 3056 4750 3426 4639
Q 3797 4528 4122 4306
z
" transform="scale(0.015625)"/>
       <path id="DejaVuSans-33" d="M 1259 4147
L 1259 2394
L 2053 2394
Q 2494 2394 2734 2622
Q 2975 2850 2975 3272
Q 2975 3691 2734 3919
Q 2494 4147 2053 4147
L 1259 4147
z
M 628 4666
L 2053 4666
Q 2838 4666 3239 4311
Q 3641 3956 3641 3272
Q 3641 2581 3239 2228
Q 2838 1875 2053 1875
L 1259 1875
L 1259 0
L 628 0
L 628 4666
z
" transform="scale(0.015625)"/>
       <path id="DejaVuSans-38" d="M 556 4666
L 1191 4666
L 1191 1831
Q 1191 1081 1462 751
Q 1734 422 2344 422
Q 2950 422 3222 751
Q 3494 1081 3494 1831
L 3494 4666
L 4128 4666
L 4128 1753
Q 4128 841 3676 375
Q 3225 -91 2344 -91
Q 1459 -91 1007 375
Q 556 841 556 1753
L 556 4666
z
" transform="scale(0.015625)"/>
       <path id="DejaVuSans-10" d="M 313 2009
L 1997 2009
L 1997 1497
L 313 1497
L 313 2009
z
" transform="scale(0.015625)"/>
       <path id="DejaVuSans-56" d="M 2834 3397
L 2834 2853
Q 2591 2978 2328 3040
Q 2066 3103 1784 3103
Q 1356 3103 1142 2972
Q 928 2841 928 2578
Q 928 2378 1081 2264
Q 1234 2150 1697 2047
L 1894 2003
Q 2506 1872 2764 1633
Q 3022 1394 3022 966
Q 3022 478 2636 193
Q 2250 -91 1575 -91
Q 1294 -91 989 -36
Q 684 19 347 128
L 347 722
Q 666 556 975 473
Q 1284 391 1588 391
Q 1994 391 2212 530
Q 2431 669 2431 922
Q 2431 1156 2273 1281
Q 2116 1406 1581 1522
L 1381 1569
Q 847 1681 609 1914
Q 372 2147 372 2553
Q 372 3047 722 3315
Q 1072 3584 1716 3584
Q 2034 3584 2315 3537
Q 2597 3491 2834 3397
z
" transform="scale(0.015625)"/>
      </defs>
      <use xlink:href="#DejaVuSans-26"/>
      <use xlink:href="#DejaVuSans-33" transform="translate(69.828125 0)"/>
      <use xlink:href="#DejaVuSans-38" transform="translate(130.125 0)"/>
      <use xlink:href="#DejaVuSans-10" transform="translate(203.3125 0)"/>
      <use xlink:href="#DejaVuSans-56" transform="translate(239.390625 0)"/>
     </g>
    </g>
   </g>
   <g id="matplotlib.axis_2">
    <g id="ytick_1">
     <g id="line2d_13"/>
     <g id="text_8">
      <!-- First wallet -->
      <g transform="translate(57.888125 142.956174) scale(0.11 -0.11)">
       <defs>
        <path id="DejaVuSans-29" d="M 628 4666
L 3309 4666
L 3309 4134
L 1259 4134
L 1259 2759
L 3109 2759
L 3109 2228
L 1259 2228
L 1259 0
L 628 0
L 628 4666
z
" transform="scale(0.015625)"/>
        <path id="DejaVuSans-4c" d="M 603 3500
L 1178 3500
L 1178 0
L 603 0
L 603 3500
z
M 603 4863
L 1178 4863
L 1178 4134
L 603 4134
L 603 4863
z
" transform="scale(0.015625)"/>
        <path id="DejaVuSans-55" d="M 2631 2963
Q 2534 3019 2420 3045
Q 2306 3072 2169 3072
Q 1681 3072 1420 2755
Q 1159 2438 1159 1844
L 1159 0
L 581 0
L 581 3500
L 1159 3500
L 1159 2956
Q 1341 3275 1631 3429
Q 1922 3584 2338 3584
Q 2397 3584 2469 3576
Q 2541 3569 2628 3553
L 2631 2963
z
" transform="scale(0.015625)"/>
        <path id="DejaVuSans-57" d="M 1172 4494
L 1172 3500
L 2356 3500
L 2356 3053
L 1172 3053
L 1172 1153
Q 1172 725 1289 603
Q 1406 481 1766 481
L 2356 481
L 2356 0
L 1766 0
Q 1100 0 847 248
Q 594 497 594 1153
L 594 3053
L 172 3053
L 172 3500
L 594 3500
L 594 4494
L 1172 4494
z
" transform="scale(0.015625)"/>
        <path id="DejaVuSans-3" transform="scale(0.015625)"/>
        <path id="DejaVuSans-5a" d="M 269 3500
L 844 3500
L 1563 769
L 2278 3500
L 2956 3500
L 3675 769
L 4391 3500
L 4966 3500
L 4050 0
L 3372 0
L 2619 2869
L 1863 0
L 1184 0
L 269 3500
z
" transform="scale(0.015625)"/>
        <path id="DejaVuSans-44" d="M 2194 1759
Q 1497 1759 1228 1600
Q 959 1441 959 1056
Q 959 750 1161 570
Q 1363 391 1709 391
Q 2188 391 2477 730
Q 2766 1069 2766 1631
L 2766 1759
L 2194 1759
z
M 3341 1997
L 3341 0
L 2766 0
L 2766 531
Q 2569 213 2275 61
Q 1981 -91 1556 -91
Q 1019 -91 701 211
Q 384 513 384 1019
Q 384 1609 779 1909
Q 1175 2209 1959 2209
L 2766 2209
L 2766 2266
Q 2766 2663 2505 2880
Q 2244 3097 1772 3097
Q 1472 3097 1187 3025
Q 903 2953 641 2809
L 641 3341
Q 956 3463 1253 3523
Q 1550 3584 1831 3584
Q 2591 3584 2966 3190
Q 3341 2797 3341 1997
z
" transform="scale(0.015625)"/>
        <path id="DejaVuSans-4f" d="M 603 4863
L 1178 4863
L 1178 0
L 603 0
L 603 4863
z
" transform="scale(0.015625)"/>
        <path id="DejaVuSans-48" d="M 3597 1894
L 3597 1613
L 953 1613
Q 991 1019 1311 708
Q 1631 397 2203 397
Q 2534 397 2845 478
Q 3156 559 3463 722
L 3463 178
Q 3153 47 2828 -22
Q 2503 -91 2169 -91
Q 1331 -91 842 396
Q 353 884 353 1716
Q 353 2575 817 3079
Q 1281 3584 2069 3584
Q 2775 3584 3186 3129
Q 3597 2675 3597 1894
z
M 3022 2063
Q 3016 2534 2758 2815
Q 2500 3097 2075 3097
Q 1594 3097 1305 2825
Q 1016 2553 972 2059
L 3022 2063
z
" transform="scale(0.015625)"/>
       </defs>
       <use xlink:href="#DejaVuSans-29"/>
       <use xlink:href="#DejaVuSans-4c" transform="translate(50.234375 0)"/>
       <use xlink:href="#DejaVuSans-55" transform="translate(78.015625 0)"/>
       <use xlink:href="#DejaVuSans-56" transform="translate(119.125 0)"/>
       <use xlink:href="#DejaVuSans-57" transform="translate(171.21875 0)"/>
       <use xlink:href="#DejaVuSans-3" transform="translate(210.421875 0)"/>
       <use xlink:href="#DejaVuSans-5a" transform="translate(242.203125 0)"/>
       <use xlink:href="#DejaVuSans-44" transform="translate(323.984375 0)"/>
       <use xlink:href="#DejaVuSans-4f" transform="translate(385.265625 0)"/>
       <use xlink:href="#DejaVuSans-4f" transform="translate(413.046875 0)"/>
       <use xlink:href="#DejaVuSans-48" transform="translate(440.828125 0)"/>
       <use xlink:href="#DejaVuSans-57" transform="translate(502.359375 0)"/>
      </g>
      <!-- after restart -->
      <g transform="translate(51.274375 156.159182) scale(0.11 -0.11)">
       <defs>
        <path id="DejaVuSans-49" d="M 2375 4863
L 2375 4384
L 1825 4384
Q 1516 4384 1395 4259
Q 1275 4134 1275 3809
L 1275 3500
L 2222 3500
L 2222 3053
L 1275 3053
L 1275 0
L 697 0
L 697 3053
L 147 3053
L 147 3500
L 697 3500
L 697 3744
Q 697 4328 969 4595
Q 1241 4863 1831 4863
L 2375 4863
z
" transform="scale(0.015625)"/>
       </defs>
       <use xlink:href="#DejaVuSans-44"/>
       <use xlink:href="#DejaVuSans-49" transform="translate(61.28125 0)"/>
       <use xlink:href="#DejaVuSans-57" transform="translate(94.734375 0)"/>
       <use xlink:href="#DejaVuSans-48" transform="translate(133.9375 0)"/>
       <use xlink:href="#DejaVuSans-55" transform="translate(195.46875 0)"/>
       <use xlink:href="#DejaVuSans-3" transform="translate(236.578125 0)"/>
       <use xlink:href="#DejaVuSans-55" transform="translate(268.359375 0)"/>
       <use xlink:href="#DejaVuSans-48" transform="translate(307.265625 0)"/>
       <use xlink:href="#DejaVuSans-56" transform="translate(368.796875 0)"/>
       <use xlink:href="#DejaVuSans-57" transform="translate(420.890625 0)"/>
       <use xlink:href="#DejaVuSans-44" transform="translate(460.09375 0)"/>
       <use xlink:href="#DejaVuSans-55" transform="translate(521.375 0)"/>
       <use xlink:href="#DejaVuSans-57" transform="translate(562.484375 0)"/>
      </g>
     </g>
    </g>
    <g id="ytick_2">
     <g id="line2d_14"/>
     <g id="text_9">
      <!-- Next fresh -->
      <g transform="translate(60.71375 253.764174) scale(0.11 -0.11)">
       <defs>
        <path id="DejaVuSans-31" d="M 628 4666
L 1478 4666
L 3547 763
L 3547 4666
L 4159 4666
L 4159 0
L 3309 0
L 1241 3903
L 1241 0
L 628 0
L 628 4666
z
" transform="scale(0.015625)"/>
        <path id="DejaVuSans-5b" d="M 3513 3500
L 2247 1797
L 3578 0
L 2900 0
L 1881 1375
L 863 0
L 184 0
L 1544 1831
L 300 3500
L 978 3500
L 1906 2253
L 2834 3500
L 3513 3500
z
" transform="scale(0.015625)"/>
        <path id="DejaVuSans-4b" d="M 3513 2113
L 3513 0
L 2938 0
L 2938 2094
Q 2938 2591 2744 2837
Q 2550 3084 2163 3084
Q 1697 3084 1428 2787
Q 1159 2491 1159 1978
L 1159 0
L 581 0
L 581 4863
L 1159 4863
L 1159 2956
Q 1366 3272 1645 3428
Q 1925 3584 2291 3584
Q 2894 3584 3203 3211
Q 3513 2838 3513 2113
z
" transform="scale(0.015625)"/>
       </defs>
       <use xlink:href="#DejaVuSans-31"/>
       <use xlink:href="#DejaVuSans-48" transform="translate(74.8125 0)"/>
       <use xlink:href="#DejaVuSans-5b" transform="translate(134.59375 0)"/>
       <use xlink:href="#DejaVuSans-57" transform="translate(193.78125 0)"/>
       <use xlink:href="#DejaVuSans-3" transform="translate(232.984375 0)"/>
       <use xlink:href="#DejaVuSans-49" transform="translate(264.765625 0)"/>
       <use xlink:href="#DejaVuSans-55" transform="translate(299.96875 0)"/>
       <use xlink:href="#DejaVuSans-48" transform="translate(338.875 0)"/>
       <use xlink:href="#DejaVuSans-56" transform="translate(400.40625 0)"/>
       <use xlink:href="#DejaVuSans-4b" transform="translate(452.5 0)"/>
      </g>
      <!-- wallet -->
      <g transform="translate(84.530469 266.967182) scale(0.11 -0.11)">
       <use xlink:href="#DejaVuSans-5a"/>
       <use xlink:href="#DejaVuSans-44" transform="translate(81.78125 0)"/>
       <use xlink:href="#DejaVuSans-4f" transform="translate(143.0625 0)"/>
       <use xlink:href="#DejaVuSans-4f" transform="translate(170.84375 0)"/>
       <use xlink:href="#DejaVuSans-48" transform="translate(198.625 0)"/>
       <use xlink:href="#DejaVuSans-57" transform="translate(260.15625 0)"/>
      </g>
     </g>
    </g>
   </g>
   <g id="patch_3">
    <path d="M 120.96 140.94972
L 321.558991 140.94972
L 321.558991 111.03156
L 120.96 111.03156
z
" clip-path="url(#p0fd8fde0d6)" style="fill: #738294"/>
   </g>
   <g id="patch_4">
    <path d="M 120.96 178.62444
L 316.59367 178.62444
L 316.59367 148.70628
L 120.96 148.70628
z
" clip-path="url(#p0fd8fde0d6)" style="fill: #087f6e"/>
   </g>
   <g id="patch_5">
    <path d="M 120.96 251.75772
L 320.565927 251.75772
L 320.565927 221.83956
L 120.96 221.83956
z
" clip-path="url(#p0fd8fde0d6)" style="fill: #738294"/>
   </g>
   <g id="patch_6">
    <path d="M 120.96 289.43244
L 194.446759 289.43244
L 194.446759 259.51428
L 120.96 259.51428
z
" clip-path="url(#p0fd8fde0d6)" style="fill: #087f6e"/>
   </g>
   <g id="patch_7">
    <path d="M 120.96 311.04
L 372.96 311.04
" style="fill: none; stroke: #b8c2cc; stroke-width: 0.8; stroke-linejoin: miter; stroke-linecap: square"/>
   </g>
   <g id="line2d_15">
    <path d="M 312.621412 125.99064
L 322.552055 125.99064
" clip-path="url(#p0fd8fde0d6)" style="fill: none; stroke: #202c3c; stroke-width: 1.2; stroke-linecap: square"/>
   </g>
   <g id="text_10">
    <!-- 2.02 -->
    <g transform="translate(329.781564 128.588296) scale(0.1 -0.1)">
     <defs>
      <path id="DejaVuSans-Bold-15" d="M 1844 884
L 3897 884
L 3897 0
L 506 0
L 506 884
L 2209 2388
Q 2438 2594 2547 2791
Q 2656 2988 2656 3200
Q 2656 3528 2436 3728
Q 2216 3928 1850 3928
Q 1569 3928 1234 3808
Q 900 3688 519 3450
L 519 4475
Q 925 4609 1322 4679
Q 1719 4750 2100 4750
Q 2938 4750 3402 4381
Q 3866 4013 3866 3353
Q 3866 2972 3669 2642
Q 3472 2313 2841 1759
L 1844 884
z
" transform="scale(0.015625)"/>
      <path id="DejaVuSans-Bold-11" d="M 653 1209
L 1778 1209
L 1778 0
L 653 0
L 653 1209
z
" transform="scale(0.015625)"/>
      <path id="DejaVuSans-Bold-13" d="M 2944 2338
Q 2944 3213 2780 3570
Q 2616 3928 2228 3928
Q 1841 3928 1675 3570
Q 1509 3213 1509 2338
Q 1509 1453 1675 1090
Q 1841 728 2228 728
Q 2613 728 2778 1090
Q 2944 1453 2944 2338
z
M 4147 2328
Q 4147 1169 3647 539
Q 3147 -91 2228 -91
Q 1306 -91 806 539
Q 306 1169 306 2328
Q 306 3491 806 4120
Q 1306 4750 2228 4750
Q 3147 4750 3647 4120
Q 4147 3491 4147 2328
z
" transform="scale(0.015625)"/>
     </defs>
     <use xlink:href="#DejaVuSans-Bold-15"/>
     <use xlink:href="#DejaVuSans-Bold-11" transform="translate(69.578125 0)"/>
     <use xlink:href="#DejaVuSans-Bold-13" transform="translate(107.5625 0)"/>
     <use xlink:href="#DejaVuSans-Bold-15" transform="translate(177.140625 0)"/>
    </g>
   </g>
   <g id="line2d_16">
    <path d="M 315.600605 163.66536
L 319.572863 163.66536
" clip-path="url(#p0fd8fde0d6)" style="fill: none; stroke: #202c3c; stroke-width: 1.2; stroke-linecap: square"/>
   </g>
   <g id="text_11">
    <!-- 1.97 -->
    <g transform="translate(326.802371 166.263016) scale(0.1 -0.1)">
     <defs>
      <path id="DejaVuSans-Bold-14" d="M 750 831
L 1813 831
L 1813 3847
L 722 3622
L 722 4441
L 1806 4666
L 2950 4666
L 2950 831
L 4013 831
L 4013 0
L 750 0
L 750 831
z
" transform="scale(0.015625)"/>
      <path id="DejaVuSans-Bold-1c" d="M 641 103
L 641 966
Q 928 831 1190 764
Q 1453 697 1709 697
Q 2247 697 2547 995
Q 2847 1294 2900 1881
Q 2688 1725 2447 1647
Q 2206 1569 1925 1569
Q 1209 1569 770 1986
Q 331 2403 331 3084
Q 331 3838 820 4291
Q 1309 4744 2131 4744
Q 3044 4744 3544 4128
Q 4044 3513 4044 2388
Q 4044 1231 3459 570
Q 2875 -91 1856 -91
Q 1528 -91 1228 -42
Q 928 6 641 103
z
M 2125 2350
Q 2441 2350 2600 2554
Q 2759 2759 2759 3169
Q 2759 3575 2600 3781
Q 2441 3988 2125 3988
Q 1809 3988 1650 3781
Q 1491 3575 1491 3169
Q 1491 2759 1650 2554
Q 1809 2350 2125 2350
z
" transform="scale(0.015625)"/>
      <path id="DejaVuSans-Bold-1a" d="M 428 4666
L 3944 4666
L 3944 3988
L 2125 0
L 953 0
L 2675 3781
L 428 3781
L 428 4666
z
" transform="scale(0.015625)"/>
     </defs>
     <use xlink:href="#DejaVuSans-Bold-14"/>
     <use xlink:href="#DejaVuSans-Bold-11" transform="translate(69.578125 0)"/>
     <use xlink:href="#DejaVuSans-Bold-1c" transform="translate(107.5625 0)"/>
     <use xlink:href="#DejaVuSans-Bold-1a" transform="translate(177.140625 0)"/>
    </g>
   </g>
   <g id="line2d_17">
    <path d="M 312.621412 236.79864
L 327.517377 236.79864
" clip-path="url(#p0fd8fde0d6)" style="fill: none; stroke: #202c3c; stroke-width: 1.2; stroke-linecap: square"/>
   </g>
   <g id="text_12">
    <!-- 2.01 -->
    <g transform="translate(334.746885 239.396296) scale(0.1 -0.1)">
     <use xlink:href="#DejaVuSans-Bold-15"/>
     <use xlink:href="#DejaVuSans-Bold-11" transform="translate(69.578125 0)"/>
     <use xlink:href="#DejaVuSans-Bold-13" transform="translate(107.5625 0)"/>
     <use xlink:href="#DejaVuSans-Bold-14" transform="translate(177.140625 0)"/>
    </g>
   </g>
   <g id="line2d_18">
    <path d="M 194.446759 274.47336
L 198.419016 274.47336
" clip-path="url(#p0fd8fde0d6)" style="fill: none; stroke: #202c3c; stroke-width: 1.2; stroke-linecap: square"/>
   </g>
   <g id="text_13">
    <!-- 0.74 -->
    <g transform="translate(205.648525 277.071016) scale(0.1 -0.1)">
     <defs>
      <path id="DejaVuSans-Bold-17" d="M 2356 3675
L 1038 1722
L 2356 1722
L 2356 3675
z
M 2156 4666
L 3494 4666
L 3494 1722
L 4159 1722
L 4159 850
L 3494 850
L 3494 0
L 2356 0
L 2356 850
L 288 850
L 288 1881
L 2156 4666
z
" transform="scale(0.015625)"/>
     </defs>
     <use xlink:href="#DejaVuSans-Bold-13"/>
     <use xlink:href="#DejaVuSans-Bold-11" transform="translate(69.578125 0)"/>
     <use xlink:href="#DejaVuSans-Bold-1a" transform="translate(107.5625 0)"/>
     <use xlink:href="#DejaVuSans-Bold-17" transform="translate(177.140625 0)"/>
    </g>
   </g>
   <g id="text_14">
    <!-- LWD CPU -->
    <g transform="translate(120.96 73.424) scale(0.132 -0.132)">
     <defs>
      <path id="DejaVuSans-Bold-2f" d="M 588 4666
L 1791 4666
L 1791 909
L 3903 909
L 3903 0
L 588 0
L 588 4666
z
" transform="scale(0.015625)"/>
      <path id="DejaVuSans-Bold-3a" d="M 191 4666
L 1344 4666
L 2150 1275
L 2950 4666
L 4109 4666
L 4909 1275
L 5716 4666
L 6859 4666
L 5759 0
L 4372 0
L 3525 3547
L 2688 0
L 1300 0
L 191 4666
z
" transform="scale(0.015625)"/>
      <path id="DejaVuSans-Bold-27" d="M 1791 3756
L 1791 909
L 2222 909
Q 2959 909 3348 1275
Q 3738 1641 3738 2338
Q 3738 3031 3350 3393
Q 2963 3756 2222 3756
L 1791 3756
z
M 588 4666
L 1856 4666
Q 2919 4666 3439 4514
Q 3959 4363 4331 4000
Q 4659 3684 4818 3271
Q 4978 2859 4978 2338
Q 4978 1809 4818 1395
Q 4659 981 4331 666
Q 3956 303 3431 151
Q 2906 0 1856 0
L 588 0
L 588 4666
z
" transform="scale(0.015625)"/>
      <path id="DejaVuSans-Bold-3" transform="scale(0.015625)"/>
      <path id="DejaVuSans-Bold-26" d="M 4288 256
Q 3956 84 3597 -3
Q 3238 -91 2847 -91
Q 1681 -91 1000 561
Q 319 1213 319 2328
Q 319 3447 1000 4098
Q 1681 4750 2847 4750
Q 3238 4750 3597 4662
Q 3956 4575 4288 4403
L 4288 3438
Q 3953 3666 3628 3772
Q 3303 3878 2944 3878
Q 2300 3878 1931 3465
Q 1563 3053 1563 2328
Q 1563 1606 1931 1193
Q 2300 781 2944 781
Q 3303 781 3628 887
Q 3953 994 4288 1222
L 4288 256
z
" transform="scale(0.015625)"/>
      <path id="DejaVuSans-Bold-33" d="M 588 4666
L 2584 4666
Q 3475 4666 3951 4270
Q 4428 3875 4428 3144
Q 4428 2409 3951 2014
Q 3475 1619 2584 1619
L 1791 1619
L 1791 0
L 588 0
L 588 4666
z
M 1791 3794
L 1791 2491
L 2456 2491
Q 2806 2491 2997 2661
Q 3188 2831 3188 3144
Q 3188 3456 2997 3625
Q 2806 3794 2456 3794
L 1791 3794
z
" transform="scale(0.015625)"/>
      <path id="DejaVuSans-Bold-38" d="M 588 4666
L 1791 4666
L 1791 1869
Q 1791 1291 1980 1042
Q 2169 794 2597 794
Q 3028 794 3217 1042
Q 3406 1291 3406 1869
L 3406 4666
L 4609 4666
L 4609 1869
Q 4609 878 4112 393
Q 3616 -91 2597 -91
Q 1581 -91 1084 393
Q 588 878 588 1869
L 588 4666
z
" transform="scale(0.015625)"/>
     </defs>
     <use xlink:href="#DejaVuSans-Bold-2f"/>
     <use xlink:href="#DejaVuSans-Bold-3a" transform="translate(55.953125 0)"/>
     <use xlink:href="#DejaVuSans-Bold-27" transform="translate(166.25 0)"/>
     <use xlink:href="#DejaVuSans-Bold-3" transform="translate(249.265625 0)"/>
     <use xlink:href="#DejaVuSans-Bold-26" transform="translate(284.078125 0)"/>
     <use xlink:href="#DejaVuSans-Bold-33" transform="translate(357.46875 0)"/>
     <use xlink:href="#DejaVuSans-Bold-38" transform="translate(430.765625 0)"/>
    </g>
   </g>
   <g id="PathCollection_1">
    <defs>
     <path id="m4bbbc9cb30" d="M 0 1.802776
C 0.478102 1.802776 0.936686 1.612824 1.274755 1.274755
C 1.612824 0.936686 1.802776 0.478102 1.802776 0
C 1.802776 -0.478102 1.612824 -0.936686 1.274755 -1.274755
C 0.936686 -1.612824 0.478102 -1.802776 0 -1.802776
C -0.478102 -1.802776 -0.936686 -1.612824 -1.274755 -1.274755
C -1.612824 -0.936686 -1.802776 -0.478102 -1.802776 0
C -1.802776 0.478102 -1.612824 0.936686 -1.274755 1.274755
C -0.936686 1.612824 -0.478102 1.802776 0 1.802776
z
" style="stroke: #202c3c; stroke-width: 0.6"/>
    </defs>
    <g clip-path="url(#p0fd8fde0d6)">
     <use xlink:href="#m4bbbc9cb30" x="312.621412" y="125.99064" style="fill: #ffffff; stroke: #202c3c; stroke-width: 0.6"/>
     <use xlink:href="#m4bbbc9cb30" x="321.558991" y="125.99064" style="fill: #ffffff; stroke: #202c3c; stroke-width: 0.6"/>
     <use xlink:href="#m4bbbc9cb30" x="322.552055" y="125.99064" style="fill: #ffffff; stroke: #202c3c; stroke-width: 0.6"/>
    </g>
   </g>
   <g id="PathCollection_2">
    <g clip-path="url(#p0fd8fde0d6)">
     <use xlink:href="#m4bbbc9cb30" x="316.59367" y="163.66536" style="fill: #ffffff; stroke: #202c3c; stroke-width: 0.6"/>
     <use xlink:href="#m4bbbc9cb30" x="319.572863" y="163.66536" style="fill: #ffffff; stroke: #202c3c; stroke-width: 0.6"/>
     <use xlink:href="#m4bbbc9cb30" x="315.600605" y="163.66536" style="fill: #ffffff; stroke: #202c3c; stroke-width: 0.6"/>
    </g>
   </g>
   <g id="PathCollection_3">
    <g clip-path="url(#p0fd8fde0d6)">
     <use xlink:href="#m4bbbc9cb30" x="312.621412" y="236.79864" style="fill: #ffffff; stroke: #202c3c; stroke-width: 0.6"/>
     <use xlink:href="#m4bbbc9cb30" x="320.565927" y="236.79864" style="fill: #ffffff; stroke: #202c3c; stroke-width: 0.6"/>
     <use xlink:href="#m4bbbc9cb30" x="327.517377" y="236.79864" style="fill: #ffffff; stroke: #202c3c; stroke-width: 0.6"/>
    </g>
   </g>
   <g id="PathCollection_4">
    <g clip-path="url(#p0fd8fde0d6)">
     <use xlink:href="#m4bbbc9cb30" x="194.446759" y="274.47336" style="fill: #ffffff; stroke: #202c3c; stroke-width: 0.6"/>
     <use xlink:href="#m4bbbc9cb30" x="194.446759" y="274.47336" style="fill: #ffffff; stroke: #202c3c; stroke-width: 0.6"/>
     <use xlink:href="#m4bbbc9cb30" x="198.419016" y="274.47336" style="fill: #ffffff; stroke: #202c3c; stroke-width: 0.6"/>
    </g>
   </g>
  </g>
  <g id="axes_2">
   <g id="patch_8">
    <path d="M 428.4 311.04
L 680.4 311.04
L 680.4 89.424
L 428.4 89.424
z
" style="fill: #ffffff"/>
   </g>
   <g id="matplotlib.axis_3">
    <g id="xtick_7">
     <g id="line2d_19">
      <path d="M 428.4 311.04
L 428.4 89.424
" clip-path="url(#pa6c34d9376)" style="fill: none; stroke: #dfe4e9; stroke-width: 0.7; stroke-linecap: square"/>
     </g>
     <g id="line2d_20">
      <g>
       <use xlink:href="#m8aa7c51af2" x="428.4" y="311.04" style="stroke: #000000; stroke-width: 0.8"/>
      </g>
     </g>
     <g id="text_15">
      <!-- 0 -->
      <g transform="translate(424.900625 326.397422) scale(0.11 -0.11)">
       <use xlink:href="#DejaVuSans-13"/>
      </g>
     </g>
    </g>
    <g id="xtick_8">
     <g id="line2d_21">
      <path d="M 467.051825 311.04
L 467.051825 89.424
" clip-path="url(#pa6c34d9376)" style="fill: none; stroke: #dfe4e9; stroke-width: 0.7; stroke-linecap: square"/>
     </g>
     <g id="line2d_22">
      <g>
       <use xlink:href="#m8aa7c51af2" x="467.051825" y="311.04" style="stroke: #000000; stroke-width: 0.8"/>
      </g>
     </g>
     <g id="text_16">
      <!-- 200 -->
      <g transform="translate(456.5537 326.397422) scale(0.11 -0.11)">
       <use xlink:href="#DejaVuSans-15"/>
       <use xlink:href="#DejaVuSans-13" transform="translate(63.625 0)"/>
       <use xlink:href="#DejaVuSans-13" transform="translate(127.25 0)"/>
      </g>
     </g>
    </g>
    <g id="xtick_9">
     <g id="line2d_23">
      <path d="M 505.70365 311.04
L 505.70365 89.424
" clip-path="url(#pa6c34d9376)" style="fill: none; stroke: #dfe4e9; stroke-width: 0.7; stroke-linecap: square"/>
     </g>
     <g id="line2d_24">
      <g>
       <use xlink:href="#m8aa7c51af2" x="505.70365" y="311.04" style="stroke: #000000; stroke-width: 0.8"/>
      </g>
     </g>
     <g id="text_17">
      <!-- 400 -->
      <g transform="translate(495.205525 326.397422) scale(0.11 -0.11)">
       <defs>
        <path id="DejaVuSans-17" d="M 2419 4116
L 825 1625
L 2419 1625
L 2419 4116
z
M 2253 4666
L 3047 4666
L 3047 1625
L 3713 1625
L 3713 1100
L 3047 1100
L 3047 0
L 2419 0
L 2419 1100
L 313 1100
L 313 1709
L 2253 4666
z
" transform="scale(0.015625)"/>
       </defs>
       <use xlink:href="#DejaVuSans-17"/>
       <use xlink:href="#DejaVuSans-13" transform="translate(63.625 0)"/>
       <use xlink:href="#DejaVuSans-13" transform="translate(127.25 0)"/>
      </g>
     </g>
    </g>
    <g id="xtick_10">
     <g id="line2d_25">
      <path d="M 544.355474 311.04
L 544.355474 89.424
" clip-path="url(#pa6c34d9376)" style="fill: none; stroke: #dfe4e9; stroke-width: 0.7; stroke-linecap: square"/>
     </g>
     <g id="line2d_26">
      <g>
       <use xlink:href="#m8aa7c51af2" x="544.355474" y="311.04" style="stroke: #000000; stroke-width: 0.8"/>
      </g>
     </g>
     <g id="text_18">
      <!-- 600 -->
      <g transform="translate(533.857349 326.397422) scale(0.11 -0.11)">
       <defs>
        <path id="DejaVuSans-19" d="M 2113 2584
Q 1688 2584 1439 2293
Q 1191 2003 1191 1497
Q 1191 994 1439 701
Q 1688 409 2113 409
Q 2538 409 2786 701
Q 3034 994 3034 1497
Q 3034 2003 2786 2293
Q 2538 2584 2113 2584
z
M 3366 4563
L 3366 3988
Q 3128 4100 2886 4159
Q 2644 4219 2406 4219
Q 1781 4219 1451 3797
Q 1122 3375 1075 2522
Q 1259 2794 1537 2939
Q 1816 3084 2150 3084
Q 2853 3084 3261 2657
Q 3669 2231 3669 1497
Q 3669 778 3244 343
Q 2819 -91 2113 -91
Q 1303 -91 875 529
Q 447 1150 447 2328
Q 447 3434 972 4092
Q 1497 4750 2381 4750
Q 2619 4750 2861 4703
Q 3103 4656 3366 4563
z
" transform="scale(0.015625)"/>
       </defs>
       <use xlink:href="#DejaVuSans-19"/>
       <use xlink:href="#DejaVuSans-13" transform="translate(63.625 0)"/>
       <use xlink:href="#DejaVuSans-13" transform="translate(127.25 0)"/>
      </g>
     </g>
    </g>
    <g id="xtick_11">
     <g id="line2d_27">
      <path d="M 583.007299 311.04
L 583.007299 89.424
" clip-path="url(#pa6c34d9376)" style="fill: none; stroke: #dfe4e9; stroke-width: 0.7; stroke-linecap: square"/>
     </g>
     <g id="line2d_28">
      <g>
       <use xlink:href="#m8aa7c51af2" x="583.007299" y="311.04" style="stroke: #000000; stroke-width: 0.8"/>
      </g>
     </g>
     <g id="text_19">
      <!-- 800 -->
      <g transform="translate(572.509174 326.397422) scale(0.11 -0.11)">
       <defs>
        <path id="DejaVuSans-1b" d="M 2034 2216
Q 1584 2216 1326 1975
Q 1069 1734 1069 1313
Q 1069 891 1326 650
Q 1584 409 2034 409
Q 2484 409 2743 651
Q 3003 894 3003 1313
Q 3003 1734 2745 1975
Q 2488 2216 2034 2216
z
M 1403 2484
Q 997 2584 770 2862
Q 544 3141 544 3541
Q 544 4100 942 4425
Q 1341 4750 2034 4750
Q 2731 4750 3128 4425
Q 3525 4100 3525 3541
Q 3525 3141 3298 2862
Q 3072 2584 2669 2484
Q 3125 2378 3379 2068
Q 3634 1759 3634 1313
Q 3634 634 3220 271
Q 2806 -91 2034 -91
Q 1263 -91 848 271
Q 434 634 434 1313
Q 434 1759 690 2068
Q 947 2378 1403 2484
z
M 1172 3481
Q 1172 3119 1398 2916
Q 1625 2713 2034 2713
Q 2441 2713 2670 2916
Q 2900 3119 2900 3481
Q 2900 3844 2670 4047
Q 2441 4250 2034 4250
Q 1625 4250 1398 4047
Q 1172 3844 1172 3481
z
" transform="scale(0.015625)"/>
       </defs>
       <use xlink:href="#DejaVuSans-1b"/>
       <use xlink:href="#DejaVuSans-13" transform="translate(63.625 0)"/>
       <use xlink:href="#DejaVuSans-13" transform="translate(127.25 0)"/>
      </g>
     </g>
    </g>
    <g id="xtick_12">
     <g id="line2d_29">
      <path d="M 621.659124 311.04
L 621.659124 89.424
" clip-path="url(#pa6c34d9376)" style="fill: none; stroke: #dfe4e9; stroke-width: 0.7; stroke-linecap: square"/>
     </g>
     <g id="line2d_30">
      <g>
       <use xlink:href="#m8aa7c51af2" x="621.659124" y="311.04" style="stroke: #000000; stroke-width: 0.8"/>
      </g>
     </g>
     <g id="text_20">
      <!-- 1000 -->
      <g transform="translate(607.661624 326.397422) scale(0.11 -0.11)">
       <use xlink:href="#DejaVuSans-14"/>
       <use xlink:href="#DejaVuSans-13" transform="translate(63.625 0)"/>
       <use xlink:href="#DejaVuSans-13" transform="translate(127.25 0)"/>
       <use xlink:href="#DejaVuSans-13" transform="translate(190.875 0)"/>
      </g>
     </g>
    </g>
    <g id="xtick_13">
     <g id="line2d_31">
      <path d="M 660.310949 311.04
L 660.310949 89.424
" clip-path="url(#pa6c34d9376)" style="fill: none; stroke: #dfe4e9; stroke-width: 0.7; stroke-linecap: square"/>
     </g>
     <g id="line2d_32">
      <g>
       <use xlink:href="#m8aa7c51af2" x="660.310949" y="311.04" style="stroke: #000000; stroke-width: 0.8"/>
      </g>
     </g>
     <g id="text_21">
      <!-- 1200 -->
      <g transform="translate(646.313449 326.397422) scale(0.11 -0.11)">
       <use xlink:href="#DejaVuSans-14"/>
       <use xlink:href="#DejaVuSans-15" transform="translate(63.625 0)"/>
       <use xlink:href="#DejaVuSans-13" transform="translate(127.25 0)"/>
       <use xlink:href="#DejaVuSans-13" transform="translate(190.875 0)"/>
      </g>
     </g>
    </g>
    <g id="text_22">
     <!-- MB -->
     <g transform="translate(545.881016 341.397422) scale(0.11 -0.11)">
      <defs>
       <path id="DejaVuSans-30" d="M 628 4666
L 1569 4666
L 2759 1491
L 3956 4666
L 4897 4666
L 4897 0
L 4281 0
L 4281 4097
L 3078 897
L 2444 897
L 1241 4097
L 1241 0
L 628 0
L 628 4666
z
" transform="scale(0.015625)"/>
       <path id="DejaVuSans-25" d="M 1259 2228
L 1259 519
L 2272 519
Q 2781 519 3026 730
Q 3272 941 3272 1375
Q 3272 1813 3026 2020
Q 2781 2228 2272 2228
L 1259 2228
z
M 1259 4147
L 1259 2741
L 2194 2741
Q 2656 2741 2882 2914
Q 3109 3088 3109 3444
Q 3109 3797 2882 3972
Q 2656 4147 2194 4147
L 1259 4147
z
M 628 4666
L 2241 4666
Q 2963 4666 3353 4366
Q 3744 4066 3744 3513
Q 3744 3084 3544 2831
Q 3344 2578 2956 2516
Q 3422 2416 3680 2098
Q 3938 1781 3938 1306
Q 3938 681 3513 340
Q 3088 0 2303 0
L 628 0
L 628 4666
z
" transform="scale(0.015625)"/>
      </defs>
      <use xlink:href="#DejaVuSans-30"/>
      <use xlink:href="#DejaVuSans-25" transform="translate(86.28125 0)"/>
     </g>
    </g>
   </g>
   <g id="matplotlib.axis_4">
    <g id="ytick_3">
     <g id="line2d_33"/>
    </g>
    <g id="ytick_4">
     <g id="line2d_34"/>
    </g>
   </g>
   <g id="patch_9">
    <path d="M 428.4 140.94972
L 634.905907 140.94972
L 634.905907 111.03156
L 428.4 111.03156
z
" clip-path="url(#pa6c34d9376)" style="fill: #738294"/>
   </g>
   <g id="patch_10">
    <path d="M 428.4 178.62444
L 634.675859 178.62444
L 634.675859 148.70628
L 428.4 148.70628
z
" clip-path="url(#pa6c34d9376)" style="fill: #087f6e"/>
   </g>
   <g id="patch_11">
    <path d="M 428.4 251.75772
L 634.85698 251.75772
L 634.85698 221.83956
L 428.4 221.83956
z
" clip-path="url(#pa6c34d9376)" style="fill: #738294"/>
   </g>
   <g id="patch_12">
    <path d="M 428.4 289.43244
L 471.829611 289.43244
L 471.829611 259.51428
L 428.4 259.51428
z
" clip-path="url(#pa6c34d9376)" style="fill: #087f6e"/>
   </g>
   <g id="patch_13">
    <path d="M 428.4 311.04
L 680.4 311.04
" style="fill: none; stroke: #b8c2cc; stroke-width: 0.8; stroke-linejoin: miter; stroke-linecap: square"/>
   </g>
   <g id="line2d_35">
    <path d="M 634.734096 125.99064
L 634.957377 125.99064
" clip-path="url(#pa6c34d9376)" style="fill: none; stroke: #202c3c; stroke-width: 1.2; stroke-linecap: square"/>
   </g>
   <g id="text_23">
    <!-- 1069 -->
    <g transform="translate(642.186885 128.588296) scale(0.1 -0.1)">
     <defs>
      <path id="DejaVuSans-Bold-19" d="M 2316 2303
Q 2000 2303 1842 2098
Q 1684 1894 1684 1484
Q 1684 1075 1842 870
Q 2000 666 2316 666
Q 2634 666 2792 870
Q 2950 1075 2950 1484
Q 2950 1894 2792 2098
Q 2634 2303 2316 2303
z
M 3803 4544
L 3803 3681
Q 3506 3822 3243 3889
Q 2981 3956 2731 3956
Q 2194 3956 1894 3657
Q 1594 3359 1544 2772
Q 1750 2925 1990 3001
Q 2231 3078 2516 3078
Q 3231 3078 3670 2659
Q 4109 2241 4109 1563
Q 4109 813 3618 361
Q 3128 -91 2303 -91
Q 1394 -91 895 523
Q 397 1138 397 2266
Q 397 3422 980 4083
Q 1563 4744 2578 4744
Q 2900 4744 3203 4694
Q 3506 4644 3803 4544
z
" transform="scale(0.015625)"/>
     </defs>
     <use xlink:href="#DejaVuSans-Bold-14"/>
     <use xlink:href="#DejaVuSans-Bold-13" transform="translate(69.578125 0)"/>
     <use xlink:href="#DejaVuSans-Bold-19" transform="translate(139.15625 0)"/>
     <use xlink:href="#DejaVuSans-Bold-1c" transform="translate(208.734375 0)"/>
    </g>
   </g>
   <g id="line2d_36">
    <path d="M 634.659794 163.66536
L 634.762354 163.66536
" clip-path="url(#pa6c34d9376)" style="fill: none; stroke: #202c3c; stroke-width: 1.2; stroke-linecap: square"/>
   </g>
   <g id="text_24">
    <!-- 1067 -->
    <g transform="translate(641.991862 166.263016) scale(0.1 -0.1)">
     <use xlink:href="#DejaVuSans-Bold-14"/>
     <use xlink:href="#DejaVuSans-Bold-13" transform="translate(69.578125 0)"/>
     <use xlink:href="#DejaVuSans-Bold-19" transform="translate(139.15625 0)"/>
     <use xlink:href="#DejaVuSans-Bold-1a" transform="translate(208.734375 0)"/>
    </g>
   </g>
   <g id="line2d_37">
    <path d="M 634.820764 236.79864
L 634.89405 236.79864
" clip-path="url(#pa6c34d9376)" style="fill: none; stroke: #202c3c; stroke-width: 1.2; stroke-linecap: square"/>
   </g>
   <g id="text_25">
    <!-- 1068 -->
    <g transform="translate(642.123558 239.396296) scale(0.1 -0.1)">
     <defs>
      <path id="DejaVuSans-Bold-1b" d="M 2228 2088
Q 1891 2088 1709 1903
Q 1528 1719 1528 1375
Q 1528 1031 1709 848
Q 1891 666 2228 666
Q 2563 666 2741 848
Q 2919 1031 2919 1375
Q 2919 1722 2741 1905
Q 2563 2088 2228 2088
z
M 1350 2484
Q 925 2613 709 2878
Q 494 3144 494 3541
Q 494 4131 934 4440
Q 1375 4750 2228 4750
Q 3075 4750 3515 4442
Q 3956 4134 3956 3541
Q 3956 3144 3739 2878
Q 3522 2613 3097 2484
Q 3572 2353 3814 2058
Q 4056 1763 4056 1313
Q 4056 619 3595 264
Q 3134 -91 2228 -91
Q 1319 -91 855 264
Q 391 619 391 1313
Q 391 1763 633 2058
Q 875 2353 1350 2484
z
M 1631 3419
Q 1631 3141 1786 2991
Q 1941 2841 2228 2841
Q 2509 2841 2662 2991
Q 2816 3141 2816 3419
Q 2816 3697 2662 3845
Q 2509 3994 2228 3994
Q 1941 3994 1786 3844
Q 1631 3694 1631 3419
z
" transform="scale(0.015625)"/>
     </defs>
     <use xlink:href="#DejaVuSans-Bold-14"/>
     <use xlink:href="#DejaVuSans-Bold-13" transform="translate(69.578125 0)"/>
     <use xlink:href="#DejaVuSans-Bold-19" transform="translate(139.15625 0)"/>
     <use xlink:href="#DejaVuSans-Bold-1b" transform="translate(208.734375 0)"/>
    </g>
   </g>
   <g id="line2d_38">
    <path d="M 471.823253 274.47336
L 471.836718 274.47336
" clip-path="url(#pa6c34d9376)" style="fill: none; stroke: #202c3c; stroke-width: 1.2; stroke-linecap: square"/>
   </g>
   <g id="text_26">
    <!-- 225 -->
    <g transform="translate(479.066226 277.071016) scale(0.1 -0.1)">
     <defs>
      <path id="DejaVuSans-Bold-18" d="M 678 4666
L 3669 4666
L 3669 3781
L 1638 3781
L 1638 3059
Q 1775 3097 1914 3117
Q 2053 3138 2203 3138
Q 3056 3138 3531 2711
Q 4006 2284 4006 1522
Q 4006 766 3489 337
Q 2972 -91 2053 -91
Q 1656 -91 1267 -14
Q 878 63 494 219
L 494 1166
Q 875 947 1217 837
Q 1559 728 1863 728
Q 2300 728 2551 942
Q 2803 1156 2803 1522
Q 2803 1891 2551 2103
Q 2300 2316 1863 2316
Q 1603 2316 1309 2248
Q 1016 2181 678 2041
L 678 4666
z
" transform="scale(0.015625)"/>
     </defs>
     <use xlink:href="#DejaVuSans-Bold-15"/>
     <use xlink:href="#DejaVuSans-Bold-15" transform="translate(69.578125 0)"/>
     <use xlink:href="#DejaVuSans-Bold-18" transform="translate(139.15625 0)"/>
    </g>
   </g>
   <g id="text_27">
    <!-- Cumulative allocations -->
    <g transform="translate(428.4 73.424) scale(0.132 -0.132)">
     <defs>
      <path id="DejaVuSans-Bold-58" d="M 500 1363
L 500 3500
L 1625 3500
L 1625 3150
Q 1625 2866 1622 2436
Q 1619 2006 1619 1863
Q 1619 1441 1641 1255
Q 1663 1069 1716 984
Q 1784 875 1895 815
Q 2006 756 2150 756
Q 2500 756 2700 1025
Q 2900 1294 2900 1772
L 2900 3500
L 4019 3500
L 4019 0
L 2900 0
L 2900 506
Q 2647 200 2364 54
Q 2081 -91 1741 -91
Q 1134 -91 817 281
Q 500 653 500 1363
z
" transform="scale(0.015625)"/>
      <path id="DejaVuSans-Bold-50" d="M 3781 2919
Q 3994 3244 4286 3414
Q 4578 3584 4928 3584
Q 5531 3584 5847 3212
Q 6163 2841 6163 2131
L 6163 0
L 5038 0
L 5038 1825
Q 5041 1866 5042 1909
Q 5044 1953 5044 2034
Q 5044 2406 4934 2573
Q 4825 2741 4581 2741
Q 4263 2741 4089 2478
Q 3916 2216 3909 1719
L 3909 0
L 2784 0
L 2784 1825
Q 2784 2406 2684 2573
Q 2584 2741 2328 2741
Q 2006 2741 1831 2477
Q 1656 2213 1656 1722
L 1656 0
L 531 0
L 531 3500
L 1656 3500
L 1656 2988
Q 1863 3284 2130 3434
Q 2397 3584 2719 3584
Q 3081 3584 3359 3409
Q 3638 3234 3781 2919
z
" transform="scale(0.015625)"/>
      <path id="DejaVuSans-Bold-4f" d="M 538 4863
L 1656 4863
L 1656 0
L 538 0
L 538 4863
z
" transform="scale(0.015625)"/>
      <path id="DejaVuSans-Bold-44" d="M 2106 1575
Q 1756 1575 1579 1456
Q 1403 1338 1403 1106
Q 1403 894 1545 773
Q 1688 653 1941 653
Q 2256 653 2472 879
Q 2688 1106 2688 1447
L 2688 1575
L 2106 1575
z
M 3816 1997
L 3816 0
L 2688 0
L 2688 519
Q 2463 200 2181 54
Q 1900 -91 1497 -91
Q 953 -91 614 226
Q 275 544 275 1050
Q 275 1666 698 1953
Q 1122 2241 2028 2241
L 2688 2241
L 2688 2328
Q 2688 2594 2478 2717
Q 2269 2841 1825 2841
Q 1466 2841 1156 2769
Q 847 2697 581 2553
L 581 3406
Q 941 3494 1303 3539
Q 1666 3584 2028 3584
Q 2975 3584 3395 3211
Q 3816 2838 3816 1997
z
" transform="scale(0.015625)"/>
      <path id="DejaVuSans-Bold-57" d="M 1759 4494
L 1759 3500
L 2913 3500
L 2913 2700
L 1759 2700
L 1759 1216
Q 1759 972 1856 886
Q 1953 800 2241 800
L 2816 800
L 2816 0
L 1856 0
Q 1194 0 917 276
Q 641 553 641 1216
L 641 2700
L 84 2700
L 84 3500
L 641 3500
L 641 4494
L 1759 4494
z
" transform="scale(0.015625)"/>
      <path id="DejaVuSans-Bold-4c" d="M 538 3500
L 1656 3500
L 1656 0
L 538 0
L 538 3500
z
M 538 4863
L 1656 4863
L 1656 3950
L 538 3950
L 538 4863
z
" transform="scale(0.015625)"/>
      <path id="DejaVuSans-Bold-59" d="M 97 3500
L 1216 3500
L 2088 1081
L 2956 3500
L 4078 3500
L 2700 0
L 1472 0
L 97 3500
z
" transform="scale(0.015625)"/>
      <path id="DejaVuSans-Bold-48" d="M 4031 1759
L 4031 1441
L 1416 1441
Q 1456 1047 1700 850
Q 1944 653 2381 653
Q 2734 653 3104 758
Q 3475 863 3866 1075
L 3866 213
Q 3469 63 3072 -14
Q 2675 -91 2278 -91
Q 1328 -91 801 392
Q 275 875 275 1747
Q 275 2603 792 3093
Q 1309 3584 2216 3584
Q 3041 3584 3536 3087
Q 4031 2591 4031 1759
z
M 2881 2131
Q 2881 2450 2695 2645
Q 2509 2841 2209 2841
Q 1884 2841 1681 2658
Q 1478 2475 1428 2131
L 2881 2131
z
" transform="scale(0.015625)"/>
      <path id="DejaVuSans-Bold-52" d="M 2203 2784
Q 1831 2784 1636 2517
Q 1441 2250 1441 1747
Q 1441 1244 1636 976
Q 1831 709 2203 709
Q 2569 709 2762 976
Q 2956 1244 2956 1747
Q 2956 2250 2762 2517
Q 2569 2784 2203 2784
z
M 2203 3584
Q 3106 3584 3614 3096
Q 4122 2609 4122 1747
Q 4122 884 3614 396
Q 3106 -91 2203 -91
Q 1297 -91 786 396
Q 275 884 275 1747
Q 275 2609 786 3096
Q 1297 3584 2203 3584
z
" transform="scale(0.015625)"/>
      <path id="DejaVuSans-Bold-46" d="M 3366 3391
L 3366 2478
Q 3138 2634 2908 2709
Q 2678 2784 2431 2784
Q 1963 2784 1702 2511
Q 1441 2238 1441 1747
Q 1441 1256 1702 982
Q 1963 709 2431 709
Q 2694 709 2930 787
Q 3166 866 3366 1019
L 3366 103
Q 3103 6 2833 -42
Q 2563 -91 2291 -91
Q 1344 -91 809 395
Q 275 881 275 1747
Q 275 2613 809 3098
Q 1344 3584 2291 3584
Q 2566 3584 2833 3536
Q 3100 3488 3366 3391
z
" transform="scale(0.015625)"/>
      <path id="DejaVuSans-Bold-51" d="M 4056 2131
L 4056 0
L 2931 0
L 2931 347
L 2931 1631
Q 2931 2084 2911 2256
Q 2891 2428 2841 2509
Q 2775 2619 2662 2680
Q 2550 2741 2406 2741
Q 2056 2741 1856 2470
Q 1656 2200 1656 1722
L 1656 0
L 538 0
L 538 3500
L 1656 3500
L 1656 2988
Q 1909 3294 2193 3439
Q 2478 3584 2822 3584
Q 3428 3584 3742 3212
Q 4056 2841 4056 2131
z
" transform="scale(0.015625)"/>
      <path id="DejaVuSans-Bold-56" d="M 3272 3391
L 3272 2541
Q 2913 2691 2578 2766
Q 2244 2841 1947 2841
Q 1628 2841 1473 2761
Q 1319 2681 1319 2516
Q 1319 2381 1436 2309
Q 1553 2238 1856 2203
L 2053 2175
Q 2913 2066 3209 1816
Q 3506 1566 3506 1031
Q 3506 472 3093 190
Q 2681 -91 1863 -91
Q 1516 -91 1145 -36
Q 775 19 384 128
L 384 978
Q 719 816 1070 734
Q 1422 653 1784 653
Q 2113 653 2278 743
Q 2444 834 2444 1013
Q 2444 1163 2330 1236
Q 2216 1309 1875 1350
L 1678 1375
Q 931 1469 631 1722
Q 331 1975 331 2491
Q 331 3047 712 3315
Q 1094 3584 1881 3584
Q 2191 3584 2531 3537
Q 2872 3491 3272 3391
z
" transform="scale(0.015625)"/>
     </defs>
     <use xlink:href="#DejaVuSans-Bold-26"/>
     <use xlink:href="#DejaVuSans-Bold-58" transform="translate(73.390625 0)"/>
     <use xlink:href="#DejaVuSans-Bold-50" transform="translate(144.578125 0)"/>
     <use xlink:href="#DejaVuSans-Bold-58" transform="translate(248.78125 0)"/>
     <use xlink:href="#DejaVuSans-Bold-4f" transform="translate(319.96875 0)"/>
     <use xlink:href="#DejaVuSans-Bold-44" transform="translate(354.25 0)"/>
     <use xlink:href="#DejaVuSans-Bold-57" transform="translate(421.734375 0)"/>
     <use xlink:href="#DejaVuSans-Bold-4c" transform="translate(469.53125 0)"/>
     <use xlink:href="#DejaVuSans-Bold-59" transform="translate(503.8125 0)"/>
     <use xlink:href="#DejaVuSans-Bold-48" transform="translate(569 0)"/>
     <use xlink:href="#DejaVuSans-Bold-3" transform="translate(636.828125 0)"/>
     <use xlink:href="#DejaVuSans-Bold-44" transform="translate(671.640625 0)"/>
     <use xlink:href="#DejaVuSans-Bold-4f" transform="translate(739.125 0)"/>
     <use xlink:href="#DejaVuSans-Bold-4f" transform="translate(773.40625 0)"/>
     <use xlink:href="#DejaVuSans-Bold-52" transform="translate(807.6875 0)"/>
     <use xlink:href="#DejaVuSans-Bold-46" transform="translate(876.390625 0)"/>
     <use xlink:href="#DejaVuSans-Bold-44" transform="translate(935.671875 0)"/>
     <use xlink:href="#DejaVuSans-Bold-57" transform="translate(1003.15625 0)"/>
     <use xlink:href="#DejaVuSans-Bold-4c" transform="translate(1050.953125 0)"/>
     <use xlink:href="#DejaVuSans-Bold-52" transform="translate(1085.234375 0)"/>
     <use xlink:href="#DejaVuSans-Bold-51" transform="translate(1153.9375 0)"/>
     <use xlink:href="#DejaVuSans-Bold-56" transform="translate(1225.125 0)"/>
    </g>
   </g>
   <g id="PathCollection_5">
    <g clip-path="url(#pa6c34d9376)">
     <use xlink:href="#m4bbbc9cb30" x="634.957377" y="125.99064" style="fill: #ffffff; stroke: #202c3c; stroke-width: 0.6"/>
     <use xlink:href="#m4bbbc9cb30" x="634.734096" y="125.99064" style="fill: #ffffff; stroke: #202c3c; stroke-width: 0.6"/>
     <use xlink:href="#m4bbbc9cb30" x="634.905907" y="125.99064" style="fill: #ffffff; stroke: #202c3c; stroke-width: 0.6"/>
    </g>
   </g>
   <g id="PathCollection_6">
    <g clip-path="url(#pa6c34d9376)">
     <use xlink:href="#m4bbbc9cb30" x="634.762354" y="163.66536" style="fill: #ffffff; stroke: #202c3c; stroke-width: 0.6"/>
     <use xlink:href="#m4bbbc9cb30" x="634.675859" y="163.66536" style="fill: #ffffff; stroke: #202c3c; stroke-width: 0.6"/>
     <use xlink:href="#m4bbbc9cb30" x="634.659794" y="163.66536" style="fill: #ffffff; stroke: #202c3c; stroke-width: 0.6"/>
    </g>
   </g>
   <g id="PathCollection_7">
    <g clip-path="url(#pa6c34d9376)">
     <use xlink:href="#m4bbbc9cb30" x="634.89405" y="236.79864" style="fill: #ffffff; stroke: #202c3c; stroke-width: 0.6"/>
     <use xlink:href="#m4bbbc9cb30" x="634.85698" y="236.79864" style="fill: #ffffff; stroke: #202c3c; stroke-width: 0.6"/>
     <use xlink:href="#m4bbbc9cb30" x="634.820764" y="236.79864" style="fill: #ffffff; stroke: #202c3c; stroke-width: 0.6"/>
    </g>
   </g>
   <g id="PathCollection_8">
    <g clip-path="url(#pa6c34d9376)">
     <use xlink:href="#m4bbbc9cb30" x="471.829611" y="274.47336" style="fill: #ffffff; stroke: #202c3c; stroke-width: 0.6"/>
     <use xlink:href="#m4bbbc9cb30" x="471.836718" y="274.47336" style="fill: #ffffff; stroke: #202c3c; stroke-width: 0.6"/>
     <use xlink:href="#m4bbbc9cb30" x="471.823253" y="274.47336" style="fill: #ffffff; stroke: #202c3c; stroke-width: 0.6"/>
    </g>
   </g>
  </g>
  <g id="axes_3">
   <g id="patch_14">
    <path d="M 735.84 311.04
L 987.84 311.04
L 987.84 89.424
L 735.84 89.424
z
" style="fill: #ffffff"/>
   </g>
   <g id="matplotlib.axis_5">
    <g id="xtick_14">
     <g id="line2d_39">
      <path d="M 735.84 311.04
L 735.84 89.424
" clip-path="url(#p09c5febd32)" style="fill: none; stroke: #dfe4e9; stroke-width: 0.7; stroke-linecap: square"/>
     </g>
     <g id="line2d_40">
      <g>
       <use xlink:href="#m8aa7c51af2" x="735.84" y="311.04" style="stroke: #000000; stroke-width: 0.8"/>
      </g>
     </g>
     <g id="text_28">
      <!-- 0 -->
      <g transform="translate(732.340625 326.397422) scale(0.11 -0.11)">
       <use xlink:href="#DejaVuSans-13"/>
      </g>
     </g>
    </g>
    <g id="xtick_15">
     <g id="line2d_41">
      <path d="M 792.144537 311.04
L 792.144537 89.424
" clip-path="url(#p09c5febd32)" style="fill: none; stroke: #dfe4e9; stroke-width: 0.7; stroke-linecap: square"/>
     </g>
     <g id="line2d_42">
      <g>
       <use xlink:href="#m8aa7c51af2" x="792.144537" y="311.04" style="stroke: #000000; stroke-width: 0.8"/>
      </g>
     </g>
     <g id="text_29">
      <!-- 10 -->
      <g transform="translate(785.145787 326.397422) scale(0.11 -0.11)">
       <use xlink:href="#DejaVuSans-14"/>
       <use xlink:href="#DejaVuSans-13" transform="translate(63.625 0)"/>
      </g>
     </g>
    </g>
    <g id="xtick_16">
     <g id="line2d_43">
      <path d="M 848.449075 311.04
L 848.449075 89.424
" clip-path="url(#p09c5febd32)" style="fill: none; stroke: #dfe4e9; stroke-width: 0.7; stroke-linecap: square"/>
     </g>
     <g id="line2d_44">
      <g>
       <use xlink:href="#m8aa7c51af2" x="848.449075" y="311.04" style="stroke: #000000; stroke-width: 0.8"/>
      </g>
     </g>
     <g id="text_30">
      <!-- 20 -->
      <g transform="translate(841.450325 326.397422) scale(0.11 -0.11)">
       <use xlink:href="#DejaVuSans-15"/>
       <use xlink:href="#DejaVuSans-13" transform="translate(63.625 0)"/>
      </g>
     </g>
    </g>
    <g id="xtick_17">
     <g id="line2d_45">
      <path d="M 904.753612 311.04
L 904.753612 89.424
" clip-path="url(#p09c5febd32)" style="fill: none; stroke: #dfe4e9; stroke-width: 0.7; stroke-linecap: square"/>
     </g>
     <g id="line2d_46">
      <g>
       <use xlink:href="#m8aa7c51af2" x="904.753612" y="311.04" style="stroke: #000000; stroke-width: 0.8"/>
      </g>
     </g>
     <g id="text_31">
      <!-- 30 -->
      <g transform="translate(897.754862 326.397422) scale(0.11 -0.11)">
       <defs>
        <path id="DejaVuSans-16" d="M 2597 2516
Q 3050 2419 3304 2112
Q 3559 1806 3559 1356
Q 3559 666 3084 287
Q 2609 -91 1734 -91
Q 1441 -91 1130 -33
Q 819 25 488 141
L 488 750
Q 750 597 1062 519
Q 1375 441 1716 441
Q 2309 441 2620 675
Q 2931 909 2931 1356
Q 2931 1769 2642 2001
Q 2353 2234 1838 2234
L 1294 2234
L 1294 2753
L 1863 2753
Q 2328 2753 2575 2939
Q 2822 3125 2822 3475
Q 2822 3834 2567 4026
Q 2313 4219 1838 4219
Q 1578 4219 1281 4162
Q 984 4106 628 3988
L 628 4550
Q 988 4650 1302 4700
Q 1616 4750 1894 4750
Q 2613 4750 3031 4423
Q 3450 4097 3450 3541
Q 3450 3153 3228 2886
Q 3006 2619 2597 2516
z
" transform="scale(0.015625)"/>
       </defs>
       <use xlink:href="#DejaVuSans-16"/>
       <use xlink:href="#DejaVuSans-13" transform="translate(63.625 0)"/>
      </g>
     </g>
    </g>
    <g id="xtick_18">
     <g id="line2d_47">
      <path d="M 961.058149 311.04
L 961.058149 89.424
" clip-path="url(#p09c5febd32)" style="fill: none; stroke: #dfe4e9; stroke-width: 0.7; stroke-linecap: square"/>
     </g>
     <g id="line2d_48">
      <g>
       <use xlink:href="#m8aa7c51af2" x="961.058149" y="311.04" style="stroke: #000000; stroke-width: 0.8"/>
      </g>
     </g>
     <g id="text_32">
      <!-- 40 -->
      <g transform="translate(954.059399 326.397422) scale(0.11 -0.11)">
       <use xlink:href="#DejaVuSans-17"/>
       <use xlink:href="#DejaVuSans-13" transform="translate(63.625 0)"/>
      </g>
     </g>
    </g>
    <g id="text_33">
     <!-- s -->
     <g transform="translate(858.974844 341.397422) scale(0.11 -0.11)">
      <use xlink:href="#DejaVuSans-56"/>
     </g>
    </g>
   </g>
   <g id="matplotlib.axis_6">
    <g id="ytick_5">
     <g id="line2d_49"/>
    </g>
    <g id="ytick_6">
     <g id="line2d_50"/>
    </g>
   </g>
   <g id="patch_15">
    <path d="M 735.84 140.94972
L 938.374484 140.94972
L 938.374484 111.03156
L 735.84 111.03156
z
" clip-path="url(#p09c5febd32)" style="fill: #738294"/>
   </g>
   <g id="patch_16">
    <path d="M 735.84 178.62444
L 938.538806 178.62444
L 938.538806 148.70628
L 735.84 148.70628
z
" clip-path="url(#p09c5febd32)" style="fill: #087f6e"/>
   </g>
   <g id="patch_17">
    <path d="M 735.84 251.75772
L 938.207583 251.75772
L 938.207583 221.83956
L 735.84 221.83956
z
" clip-path="url(#p09c5febd32)" style="fill: #738294"/>
   </g>
   <g id="patch_18">
    <path d="M 735.84 289.43244
L 932.089632 289.43244
L 932.089632 259.51428
L 735.84 259.51428
z
" clip-path="url(#p09c5febd32)" style="fill: #087f6e"/>
   </g>
   <g id="patch_19">
    <path d="M 735.84 311.04
L 987.84 311.04
" style="fill: none; stroke: #b8c2cc; stroke-width: 0.8; stroke-linejoin: miter; stroke-linecap: square"/>
   </g>
   <g id="line2d_51">
    <path d="M 937.629238 125.99064
L 938.466265 125.99064
" clip-path="url(#p09c5febd32)" style="fill: none; stroke: #202c3c; stroke-width: 1.2; stroke-linecap: square"/>
   </g>
   <g id="text_34">
    <!-- 35.97 -->
    <g transform="translate(945.695773 128.588296) scale(0.1 -0.1)">
     <defs>
      <path id="DejaVuSans-Bold-16" d="M 2981 2516
Q 3453 2394 3698 2092
Q 3944 1791 3944 1325
Q 3944 631 3412 270
Q 2881 -91 1863 -91
Q 1503 -91 1142 -33
Q 781 25 428 141
L 428 1069
Q 766 900 1098 814
Q 1431 728 1753 728
Q 2231 728 2486 893
Q 2741 1059 2741 1369
Q 2741 1688 2480 1852
Q 2219 2016 1709 2016
L 1228 2016
L 1228 2791
L 1734 2791
Q 2188 2791 2409 2933
Q 2631 3075 2631 3366
Q 2631 3634 2415 3781
Q 2200 3928 1806 3928
Q 1516 3928 1219 3862
Q 922 3797 628 3669
L 628 4550
Q 984 4650 1334 4700
Q 1684 4750 2022 4750
Q 2931 4750 3382 4451
Q 3834 4153 3834 3553
Q 3834 3144 3618 2883
Q 3403 2622 2981 2516
z
" transform="scale(0.015625)"/>
     </defs>
     <use xlink:href="#DejaVuSans-Bold-16"/>
     <use xlink:href="#DejaVuSans-Bold-18" transform="translate(69.578125 0)"/>
     <use xlink:href="#DejaVuSans-Bold-11" transform="translate(139.15625 0)"/>
     <use xlink:href="#DejaVuSans-Bold-1c" transform="translate(177.140625 0)"/>
     <use xlink:href="#DejaVuSans-Bold-1a" transform="translate(246.71875 0)"/>
    </g>
   </g>
   <g id="line2d_52">
    <path d="M 938.03844 163.66536
L 942.397377 163.66536
" clip-path="url(#p09c5febd32)" style="fill: none; stroke: #202c3c; stroke-width: 1.2; stroke-linecap: square"/>
   </g>
   <g id="text_35">
    <!-- 36.00 -->
    <g transform="translate(949.626885 166.263016) scale(0.1 -0.1)">
     <use xlink:href="#DejaVuSans-Bold-16"/>
     <use xlink:href="#DejaVuSans-Bold-19" transform="translate(69.578125 0)"/>
     <use xlink:href="#DejaVuSans-Bold-11" transform="translate(139.15625 0)"/>
     <use xlink:href="#DejaVuSans-Bold-13" transform="translate(177.140625 0)"/>
     <use xlink:href="#DejaVuSans-Bold-13" transform="translate(246.71875 0)"/>
    </g>
   </g>
   <g id="line2d_53">
    <path d="M 937.710119 236.79864
L 938.51787 236.79864
" clip-path="url(#p09c5febd32)" style="fill: none; stroke: #202c3c; stroke-width: 1.2; stroke-linecap: square"/>
   </g>
   <g id="text_36">
    <!-- 35.94 -->
    <g transform="translate(945.747378 239.396296) scale(0.1 -0.1)">
     <use xlink:href="#DejaVuSans-Bold-16"/>
     <use xlink:href="#DejaVuSans-Bold-18" transform="translate(69.578125 0)"/>
     <use xlink:href="#DejaVuSans-Bold-11" transform="translate(139.15625 0)"/>
     <use xlink:href="#DejaVuSans-Bold-1c" transform="translate(177.140625 0)"/>
     <use xlink:href="#DejaVuSans-Bold-17" transform="translate(246.71875 0)"/>
    </g>
   </g>
   <g id="line2d_54">
    <path d="M 931.976366 274.47336
L 937.558314 274.47336
" clip-path="url(#p09c5febd32)" style="fill: none; stroke: #202c3c; stroke-width: 1.2; stroke-linecap: square"/>
   </g>
   <g id="text_37">
    <!-- 34.86 -->
    <g transform="translate(944.787822 277.071016) scale(0.1 -0.1)">
     <use xlink:href="#DejaVuSans-Bold-16"/>
     <use xlink:href="#DejaVuSans-Bold-17" transform="translate(69.578125 0)"/>
     <use xlink:href="#DejaVuSans-Bold-11" transform="translate(139.15625 0)"/>
     <use xlink:href="#DejaVuSans-Bold-1b" transform="translate(177.140625 0)"/>
     <use xlink:href="#DejaVuSans-Bold-19" transform="translate(246.71875 0)"/>
    </g>
   </g>
   <g id="text_38">
    <!-- Wallet sync time -->
    <g transform="translate(735.84 73.424) scale(0.132 -0.132)">
     <defs>
      <path id="DejaVuSans-Bold-5c" d="M 78 3500
L 1197 3500
L 2138 1125
L 2938 3500
L 4056 3500
L 2584 -331
Q 2363 -916 2067 -1148
Q 1772 -1381 1288 -1381
L 641 -1381
L 641 -647
L 991 -647
Q 1275 -647 1404 -556
Q 1534 -466 1606 -231
L 1638 -134
L 78 3500
z
" transform="scale(0.015625)"/>
     </defs>
     <use xlink:href="#DejaVuSans-Bold-3a"/>
     <use xlink:href="#DejaVuSans-Bold-44" transform="translate(106.734375 0)"/>
     <use xlink:href="#DejaVuSans-Bold-4f" transform="translate(174.21875 0)"/>
     <use xlink:href="#DejaVuSans-Bold-4f" transform="translate(208.5 0)"/>
     <use xlink:href="#DejaVuSans-Bold-48" transform="translate(242.78125 0)"/>
     <use xlink:href="#DejaVuSans-Bold-57" transform="translate(310.609375 0)"/>
     <use xlink:href="#DejaVuSans-Bold-3" transform="translate(358.40625 0)"/>
     <use xlink:href="#DejaVuSans-Bold-56" transform="translate(393.21875 0)"/>
     <use xlink:href="#DejaVuSans-Bold-5c" transform="translate(452.734375 0)"/>
     <use xlink:href="#DejaVuSans-Bold-51" transform="translate(517.921875 0)"/>
     <use xlink:href="#DejaVuSans-Bold-46" transform="translate(589.109375 0)"/>
     <use xlink:href="#DejaVuSans-Bold-3" transform="translate(648.390625 0)"/>
     <use xlink:href="#DejaVuSans-Bold-57" transform="translate(683.203125 0)"/>
     <use xlink:href="#DejaVuSans-Bold-4c" transform="translate(731 0)"/>
     <use xlink:href="#DejaVuSans-Bold-50" transform="translate(765.28125 0)"/>
     <use xlink:href="#DejaVuSans-Bold-48" transform="translate(869.484375 0)"/>
    </g>
   </g>
   <g id="PathCollection_9">
    <g clip-path="url(#p09c5febd32)">
     <use xlink:href="#m4bbbc9cb30" x="937.629238" y="125.99064" style="fill: #ffffff; stroke: #202c3c; stroke-width: 0.6"/>
     <use xlink:href="#m4bbbc9cb30" x="938.466265" y="125.99064" style="fill: #ffffff; stroke: #202c3c; stroke-width: 0.6"/>
     <use xlink:href="#m4bbbc9cb30" x="938.374484" y="125.99064" style="fill: #ffffff; stroke: #202c3c; stroke-width: 0.6"/>
    </g>
   </g>
   <g id="PathCollection_10">
    <g clip-path="url(#p09c5febd32)">
     <use xlink:href="#m4bbbc9cb30" x="942.397377" y="163.66536" style="fill: #ffffff; stroke: #202c3c; stroke-width: 0.6"/>
     <use xlink:href="#m4bbbc9cb30" x="938.538806" y="163.66536" style="fill: #ffffff; stroke: #202c3c; stroke-width: 0.6"/>
     <use xlink:href="#m4bbbc9cb30" x="938.03844" y="163.66536" style="fill: #ffffff; stroke: #202c3c; stroke-width: 0.6"/>
    </g>
   </g>
   <g id="PathCollection_11">
    <g clip-path="url(#p09c5febd32)">
     <use xlink:href="#m4bbbc9cb30" x="937.710119" y="236.79864" style="fill: #ffffff; stroke: #202c3c; stroke-width: 0.6"/>
     <use xlink:href="#m4bbbc9cb30" x="938.51787" y="236.79864" style="fill: #ffffff; stroke: #202c3c; stroke-width: 0.6"/>
     <use xlink:href="#m4bbbc9cb30" x="938.207583" y="236.79864" style="fill: #ffffff; stroke: #202c3c; stroke-width: 0.6"/>
    </g>
   </g>
   <g id="PathCollection_12">
    <g clip-path="url(#p09c5febd32)">
     <use xlink:href="#m4bbbc9cb30" x="937.558314" y="274.47336" style="fill: #ffffff; stroke: #202c3c; stroke-width: 0.6"/>
     <use xlink:href="#m4bbbc9cb30" x="932.089632" y="274.47336" style="fill: #ffffff; stroke: #202c3c; stroke-width: 0.6"/>
     <use xlink:href="#m4bbbc9cb30" x="931.976366" y="274.47336" style="fill: #ffffff; stroke: #202c3c; stroke-width: 0.6"/>
    </g>
   </g>
  </g>
  <g id="text_39">
   <!-- PR 9: sequential wallet syncs -->
   <g transform="translate(80.64 22.972875) scale(0.2 -0.2)">
    <defs>
     <path id="DejaVuSans-Bold-35" d="M 2297 2597
Q 2675 2597 2839 2737
Q 3003 2878 3003 3200
Q 3003 3519 2839 3656
Q 2675 3794 2297 3794
L 1791 3794
L 1791 2597
L 2297 2597
z
M 1791 1766
L 1791 0
L 588 0
L 588 4666
L 2425 4666
Q 3347 4666 3776 4356
Q 4206 4047 4206 3378
Q 4206 2916 3982 2619
Q 3759 2322 3309 2181
Q 3556 2125 3751 1926
Q 3947 1728 4147 1325
L 4800 0
L 3519 0
L 2950 1159
Q 2778 1509 2601 1637
Q 2425 1766 2131 1766
L 1791 1766
z
" transform="scale(0.015625)"/>
     <path id="DejaVuSans-Bold-1d" d="M 716 3500
L 1844 3500
L 1844 2291
L 716 2291
L 716 3500
z
M 716 1209
L 1844 1209
L 1844 0
L 716 0
L 716 1209
z
" transform="scale(0.015625)"/>
     <path id="DejaVuSans-Bold-54" d="M 2181 2772
Q 1825 2772 1636 2509
Q 1447 2247 1447 1747
Q 1447 1247 1636 984
Q 1825 722 2181 722
Q 2541 722 2730 984
Q 2919 1247 2919 1747
Q 2919 2247 2730 2509
Q 2541 2772 2181 2772
z
M 2919 506
Q 2688 197 2409 53
Q 2131 -91 1766 -91
Q 1119 -91 703 423
Q 288 938 288 1747
Q 288 2556 703 3067
Q 1119 3578 1766 3578
Q 2131 3578 2409 3434
Q 2688 3291 2919 2981
L 2919 3500
L 4044 3500
L 4044 -1331
L 2919 -1331
L 2919 506
z
" transform="scale(0.015625)"/>
     <path id="DejaVuSans-Bold-5a" d="M 225 3500
L 1313 3500
L 1900 1088
L 2491 3500
L 3425 3500
L 4013 1113
L 4603 3500
L 5691 3500
L 4769 0
L 3547 0
L 2956 2406
L 2369 0
L 1147 0
L 225 3500
z
" transform="scale(0.015625)"/>
    </defs>
    <use xlink:href="#DejaVuSans-Bold-33"/>
    <use xlink:href="#DejaVuSans-Bold-35" transform="translate(73.296875 0)"/>
    <use xlink:href="#DejaVuSans-Bold-3" transform="translate(150.296875 0)"/>
    <use xlink:href="#DejaVuSans-Bold-1c" transform="translate(185.109375 0)"/>
    <use xlink:href="#DejaVuSans-Bold-1d" transform="translate(254.6875 0)"/>
    <use xlink:href="#DejaVuSans-Bold-3" transform="translate(294.671875 0)"/>
    <use xlink:href="#DejaVuSans-Bold-56" transform="translate(329.484375 0)"/>
    <use xlink:href="#DejaVuSans-Bold-48" transform="translate(389 0)"/>
    <use xlink:href="#DejaVuSans-Bold-54" transform="translate(456.828125 0)"/>
    <use xlink:href="#DejaVuSans-Bold-58" transform="translate(528.40625 0)"/>
    <use xlink:href="#DejaVuSans-Bold-48" transform="translate(599.59375 0)"/>
    <use xlink:href="#DejaVuSans-Bold-51" transform="translate(667.421875 0)"/>
    <use xlink:href="#DejaVuSans-Bold-57" transform="translate(738.609375 0)"/>
    <use xlink:href="#DejaVuSans-Bold-4c" transform="translate(786.40625 0)"/>
    <use xlink:href="#DejaVuSans-Bold-44" transform="translate(820.6875 0)"/>
    <use xlink:href="#DejaVuSans-Bold-4f" transform="translate(888.171875 0)"/>
    <use xlink:href="#DejaVuSans-Bold-3" transform="translate(922.453125 0)"/>
    <use xlink:href="#DejaVuSans-Bold-5a" transform="translate(957.265625 0)"/>
    <use xlink:href="#DejaVuSans-Bold-44" transform="translate(1049.65625 0)"/>
    <use xlink:href="#DejaVuSans-Bold-4f" transform="translate(1117.140625 0)"/>
    <use xlink:href="#DejaVuSans-Bold-4f" transform="translate(1151.421875 0)"/>
    <use xlink:href="#DejaVuSans-Bold-48" transform="translate(1185.703125 0)"/>
    <use xlink:href="#DejaVuSans-Bold-57" transform="translate(1253.53125 0)"/>
    <use xlink:href="#DejaVuSans-Bold-3" transform="translate(1301.328125 0)"/>
    <use xlink:href="#DejaVuSans-Bold-56" transform="translate(1336.140625 0)"/>
    <use xlink:href="#DejaVuSans-Bold-5c" transform="translate(1395.65625 0)"/>
    <use xlink:href="#DejaVuSans-Bold-51" transform="translate(1460.84375 0)"/>
    <use xlink:href="#DejaVuSans-Bold-46" transform="translate(1532.03125 0)"/>
    <use xlink:href="#DejaVuSans-Bold-56" transform="translate(1591.3125 0)"/>
   </g>
  </g>
  <g id="text_40">
   <!-- One actual Vizor wallet at a time · complete mainnet disk cache · three paired repeats -->
   <g style="fill: #495869" transform="translate(80.64 38.88) scale(0.11 -0.11)">
    <defs>
     <path id="DejaVuSans-32" d="M 2522 4238
Q 1834 4238 1429 3725
Q 1025 3213 1025 2328
Q 1025 1447 1429 934
Q 1834 422 2522 422
Q 3209 422 3611 934
Q 4013 1447 4013 2328
Q 4013 3213 3611 3725
Q 3209 4238 2522 4238
z
M 2522 4750
Q 3503 4750 4090 4092
Q 4678 3434 4678 2328
Q 4678 1225 4090 567
Q 3503 -91 2522 -91
Q 1538 -91 948 565
Q 359 1222 359 2328
Q 359 3434 948 4092
Q 1538 4750 2522 4750
z
" transform="scale(0.015625)"/>
     <path id="DejaVuSans-51" d="M 3513 2113
L 3513 0
L 2938 0
L 2938 2094
Q 2938 2591 2744 2837
Q 2550 3084 2163 3084
Q 1697 3084 1428 2787
Q 1159 2491 1159 1978
L 1159 0
L 581 0
L 581 3500
L 1159 3500
L 1159 2956
Q 1366 3272 1645 3428
Q 1925 3584 2291 3584
Q 2894 3584 3203 3211
Q 3513 2838 3513 2113
z
" transform="scale(0.015625)"/>
     <path id="DejaVuSans-46" d="M 3122 3366
L 3122 2828
Q 2878 2963 2633 3030
Q 2388 3097 2138 3097
Q 1578 3097 1268 2742
Q 959 2388 959 1747
Q 959 1106 1268 751
Q 1578 397 2138 397
Q 2388 397 2633 464
Q 2878 531 3122 666
L 3122 134
Q 2881 22 2623 -34
Q 2366 -91 2075 -91
Q 1284 -91 818 406
Q 353 903 353 1747
Q 353 2603 823 3093
Q 1294 3584 2113 3584
Q 2378 3584 2631 3529
Q 2884 3475 3122 3366
z
" transform="scale(0.015625)"/>
     <path id="DejaVuSans-58" d="M 544 1381
L 544 3500
L 1119 3500
L 1119 1403
Q 1119 906 1312 657
Q 1506 409 1894 409
Q 2359 409 2629 706
Q 2900 1003 2900 1516
L 2900 3500
L 3475 3500
L 3475 0
L 2900 0
L 2900 538
Q 2691 219 2414 64
Q 2138 -91 1772 -91
Q 1169 -91 856 284
Q 544 659 544 1381
z
M 1991 3584
L 1991 3584
z
" transform="scale(0.015625)"/>
     <path id="DejaVuSans-39" d="M 1831 0
L 50 4666
L 709 4666
L 2188 738
L 3669 4666
L 4325 4666
L 2547 0
L 1831 0
z
" transform="scale(0.015625)"/>
     <path id="DejaVuSans-5d" d="M 353 3500
L 3084 3500
L 3084 2975
L 922 459
L 3084 459
L 3084 0
L 275 0
L 275 525
L 2438 3041
L 353 3041
L 353 3500
z
" transform="scale(0.015625)"/>
     <path id="DejaVuSans-52" d="M 1959 3097
Q 1497 3097 1228 2736
Q 959 2375 959 1747
Q 959 1119 1226 758
Q 1494 397 1959 397
Q 2419 397 2687 759
Q 2956 1122 2956 1747
Q 2956 2369 2687 2733
Q 2419 3097 1959 3097
z
M 1959 3584
Q 2709 3584 3137 3096
Q 3566 2609 3566 1747
Q 3566 888 3137 398
Q 2709 -91 1959 -91
Q 1206 -91 779 398
Q 353 888 353 1747
Q 353 2609 779 3096
Q 1206 3584 1959 3584
z
" transform="scale(0.015625)"/>
     <path id="DejaVuSans-50" d="M 3328 2828
Q 3544 3216 3844 3400
Q 4144 3584 4550 3584
Q 5097 3584 5394 3201
Q 5691 2819 5691 2113
L 5691 0
L 5113 0
L 5113 2094
Q 5113 2597 4934 2840
Q 4756 3084 4391 3084
Q 3944 3084 3684 2787
Q 3425 2491 3425 1978
L 3425 0
L 2847 0
L 2847 2094
Q 2847 2600 2669 2842
Q 2491 3084 2119 3084
Q 1678 3084 1418 2786
Q 1159 2488 1159 1978
L 1159 0
L 581 0
L 581 3500
L 1159 3500
L 1159 2956
Q 1356 3278 1631 3431
Q 1906 3584 2284 3584
Q 2666 3584 2933 3390
Q 3200 3197 3328 2828
z
" transform="scale(0.015625)"/>
     <path id="DejaVuSans-79" d="M 684 2619
L 1344 2619
L 1344 1825
L 684 1825
L 684 2619
z
" transform="scale(0.015625)"/>
     <path id="DejaVuSans-53" d="M 1159 525
L 1159 -1331
L 581 -1331
L 581 3500
L 1159 3500
L 1159 2969
Q 1341 3281 1617 3432
Q 1894 3584 2278 3584
Q 2916 3584 3314 3078
Q 3713 2572 3713 1747
Q 3713 922 3314 415
Q 2916 -91 2278 -91
Q 1894 -91 1617 61
Q 1341 213 1159 525
z
M 3116 1747
Q 3116 2381 2855 2742
Q 2594 3103 2138 3103
Q 1681 3103 1420 2742
Q 1159 2381 1159 1747
Q 1159 1113 1420 752
Q 1681 391 2138 391
Q 2594 391 2855 752
Q 3116 1113 3116 1747
z
" transform="scale(0.015625)"/>
     <path id="DejaVuSans-47" d="M 2906 2969
L 2906 4863
L 3481 4863
L 3481 0
L 2906 0
L 2906 525
Q 2725 213 2448 61
Q 2172 -91 1784 -91
Q 1150 -91 751 415
Q 353 922 353 1747
Q 353 2572 751 3078
Q 1150 3584 1784 3584
Q 2172 3584 2448 3432
Q 2725 3281 2906 2969
z
M 947 1747
Q 947 1113 1208 752
Q 1469 391 1925 391
Q 2381 391 2643 752
Q 2906 1113 2906 1747
Q 2906 2381 2643 2742
Q 2381 3103 1925 3103
Q 1469 3103 1208 2742
Q 947 2381 947 1747
z
" transform="scale(0.015625)"/>
     <path id="DejaVuSans-4e" d="M 581 4863
L 1159 4863
L 1159 1991
L 2875 3500
L 3609 3500
L 1753 1863
L 3688 0
L 2938 0
L 1159 1709
L 1159 0
L 581 0
L 581 4863
z
" transform="scale(0.015625)"/>
    </defs>
    <use xlink:href="#DejaVuSans-32"/>
    <use xlink:href="#DejaVuSans-51" transform="translate(78.71875 0)"/>
    <use xlink:href="#DejaVuSans-48" transform="translate(142.09375 0)"/>
    <use xlink:href="#DejaVuSans-3" transform="translate(203.625 0)"/>
    <use xlink:href="#DejaVuSans-44" transform="translate(235.40625 0)"/>
    <use xlink:href="#DejaVuSans-46" transform="translate(296.6875 0)"/>
    <use xlink:href="#DejaVuSans-57" transform="translate(351.671875 0)"/>
    <use xlink:href="#DejaVuSans-58" transform="translate(390.875 0)"/>
    <use xlink:href="#DejaVuSans-44" transform="translate(454.25 0)"/>
    <use xlink:href="#DejaVuSans-4f" transform="translate(515.53125 0)"/>
    <use xlink:href="#DejaVuSans-3" transform="translate(543.3125 0)"/>
    <use xlink:href="#DejaVuSans-39" transform="translate(575.09375 0)"/>
    <use xlink:href="#DejaVuSans-4c" transform="translate(641.296875 0)"/>
    <use xlink:href="#DejaVuSans-5d" transform="translate(669.078125 0)"/>
    <use xlink:href="#DejaVuSans-52" transform="translate(721.5625 0)"/>
    <use xlink:href="#DejaVuSans-55" transform="translate(782.75 0)"/>
    <use xlink:href="#DejaVuSans-3" transform="translate(823.859375 0)"/>
    <use xlink:href="#DejaVuSans-5a" transform="translate(855.640625 0)"/>
    <use xlink:href="#DejaVuSans-44" transform="translate(937.421875 0)"/>
    <use xlink:href="#DejaVuSans-4f" transform="translate(998.703125 0)"/>
    <use xlink:href="#DejaVuSans-4f" transform="translate(1026.484375 0)"/>
    <use xlink:href="#DejaVuSans-48" transform="translate(1054.265625 0)"/>
    <use xlink:href="#DejaVuSans-57" transform="translate(1115.796875 0)"/>
    <use xlink:href="#DejaVuSans-3" transform="translate(1155 0)"/>
    <use xlink:href="#DejaVuSans-44" transform="translate(1186.78125 0)"/>
    <use xlink:href="#DejaVuSans-57" transform="translate(1248.0625 0)"/>
    <use xlink:href="#DejaVuSans-3" transform="translate(1287.265625 0)"/>
    <use xlink:href="#DejaVuSans-44" transform="translate(1319.046875 0)"/>
    <use xlink:href="#DejaVuSans-3" transform="translate(1380.328125 0)"/>
    <use xlink:href="#DejaVuSans-57" transform="translate(1412.109375 0)"/>
    <use xlink:href="#DejaVuSans-4c" transform="translate(1451.3125 0)"/>
    <use xlink:href="#DejaVuSans-50" transform="translate(1479.09375 0)"/>
    <use xlink:href="#DejaVuSans-48" transform="translate(1576.5 0)"/>
    <use xlink:href="#DejaVuSans-3" transform="translate(1638.03125 0)"/>
    <use xlink:href="#DejaVuSans-79" transform="translate(1669.8125 0)"/>
    <use xlink:href="#DejaVuSans-3" transform="translate(1701.59375 0)"/>
    <use xlink:href="#DejaVuSans-46" transform="translate(1733.375 0)"/>
    <use xlink:href="#DejaVuSans-52" transform="translate(1788.359375 0)"/>
    <use xlink:href="#DejaVuSans-50" transform="translate(1849.546875 0)"/>
    <use xlink:href="#DejaVuSans-53" transform="translate(1946.953125 0)"/>
    <use xlink:href="#DejaVuSans-4f" transform="translate(2010.4375 0)"/>
    <use xlink:href="#DejaVuSans-48" transform="translate(2038.21875 0)"/>
    <use xlink:href="#DejaVuSans-57" transform="translate(2099.75 0)"/>
    <use xlink:href="#DejaVuSans-48" transform="translate(2138.953125 0)"/>
    <use xlink:href="#DejaVuSans-3" transform="translate(2200.484375 0)"/>
    <use xlink:href="#DejaVuSans-50" transform="translate(2232.265625 0)"/>
    <use xlink:href="#DejaVuSans-44" transform="translate(2329.671875 0)"/>
    <use xlink:href="#DejaVuSans-4c" transform="translate(2390.953125 0)"/>
    <use xlink:href="#DejaVuSans-51" transform="translate(2418.734375 0)"/>
    <use xlink:href="#DejaVuSans-51" transform="translate(2482.109375 0)"/>
    <use xlink:href="#DejaVuSans-48" transform="translate(2545.484375 0)"/>
    <use xlink:href="#DejaVuSans-57" transform="translate(2607.015625 0)"/>
    <use xlink:href="#DejaVuSans-3" transform="translate(2646.21875 0)"/>
    <use xlink:href="#DejaVuSans-47" transform="translate(2678 0)"/>
    <use xlink:href="#DejaVuSans-4c" transform="translate(2741.484375 0)"/>
    <use xlink:href="#DejaVuSans-56" transform="translate(2769.265625 0)"/>
    <use xlink:href="#DejaVuSans-4e" transform="translate(2821.359375 0)"/>
    <use xlink:href="#DejaVuSans-3" transform="translate(2879.265625 0)"/>
    <use xlink:href="#DejaVuSans-46" transform="translate(2911.046875 0)"/>
    <use xlink:href="#DejaVuSans-44" transform="translate(2966.03125 0)"/>
    <use xlink:href="#DejaVuSans-46" transform="translate(3027.3125 0)"/>
    <use xlink:href="#DejaVuSans-4b" transform="translate(3082.296875 0)"/>
    <use xlink:href="#DejaVuSans-48" transform="translate(3145.671875 0)"/>
    <use xlink:href="#DejaVuSans-3" transform="translate(3207.203125 0)"/>
    <use xlink:href="#DejaVuSans-79" transform="translate(3238.984375 0)"/>
    <use xlink:href="#DejaVuSans-3" transform="translate(3270.765625 0)"/>
    <use xlink:href="#DejaVuSans-57" transform="translate(3302.546875 0)"/>
    <use xlink:href="#DejaVuSans-4b" transform="translate(3341.75 0)"/>
    <use xlink:href="#DejaVuSans-55" transform="translate(3405.125 0)"/>
    <use xlink:href="#DejaVuSans-48" transform="translate(3444.03125 0)"/>
    <use xlink:href="#DejaVuSans-48" transform="translate(3505.5625 0)"/>
    <use xlink:href="#DejaVuSans-3" transform="translate(3567.09375 0)"/>
    <use xlink:href="#DejaVuSans-53" transform="translate(3598.875 0)"/>
    <use xlink:href="#DejaVuSans-44" transform="translate(3662.359375 0)"/>
    <use xlink:href="#DejaVuSans-4c" transform="translate(3723.640625 0)"/>
    <use xlink:href="#DejaVuSans-55" transform="translate(3751.421875 0)"/>
    <use xlink:href="#DejaVuSans-48" transform="translate(3790.328125 0)"/>
    <use xlink:href="#DejaVuSans-47" transform="translate(3851.859375 0)"/>
    <use xlink:href="#DejaVuSans-3" transform="translate(3915.34375 0)"/>
    <use xlink:href="#DejaVuSans-55" transform="translate(3947.125 0)"/>
    <use xlink:href="#DejaVuSans-48" transform="translate(3986.03125 0)"/>
    <use xlink:href="#DejaVuSans-53" transform="translate(4047.5625 0)"/>
    <use xlink:href="#DejaVuSans-48" transform="translate(4111.046875 0)"/>
    <use xlink:href="#DejaVuSans-44" transform="translate(4172.578125 0)"/>
    <use xlink:href="#DejaVuSans-57" transform="translate(4233.859375 0)"/>
    <use xlink:href="#DejaVuSans-56" transform="translate(4273.0625 0)"/>
   </g>
  </g>
  <g id="text_41">
   <!-- Bars show medians. Dots show all three runs. Lower is better. -->
   <g style="fill: #495869" transform="translate(383.04 371.304) scale(0.1 -0.1)">
    <defs>
     <path id="DejaVuSans-27" d="M 1259 4147
L 1259 519
L 2022 519
Q 2988 519 3436 956
Q 3884 1394 3884 2338
Q 3884 3275 3436 3711
Q 2988 4147 2022 4147
L 1259 4147
z
M 628 4666
L 1925 4666
Q 3281 4666 3915 4102
Q 4550 3538 4550 2338
Q 4550 1131 3912 565
Q 3275 0 1925 0
L 628 0
L 628 4666
z
" transform="scale(0.015625)"/>
     <path id="DejaVuSans-2f" d="M 628 4666
L 1259 4666
L 1259 531
L 3531 531
L 3531 0
L 628 0
L 628 4666
z
" transform="scale(0.015625)"/>
     <path id="DejaVuSans-45" d="M 3116 1747
Q 3116 2381 2855 2742
Q 2594 3103 2138 3103
Q 1681 3103 1420 2742
Q 1159 2381 1159 1747
Q 1159 1113 1420 752
Q 1681 391 2138 391
Q 2594 391 2855 752
Q 3116 1113 3116 1747
z
M 1159 2969
Q 1341 3281 1617 3432
Q 1894 3584 2278 3584
Q 2916 3584 3314 3078
Q 3713 2572 3713 1747
Q 3713 922 3314 415
Q 2916 -91 2278 -91
Q 1894 -91 1617 61
Q 1341 213 1159 525
L 1159 0
L 581 0
L 581 4863
L 1159 4863
L 1159 2969
z
" transform="scale(0.015625)"/>
    </defs>
    <use xlink:href="#DejaVuSans-25"/>
    <use xlink:href="#DejaVuSans-44" transform="translate(68.609375 0)"/>
    <use xlink:href="#DejaVuSans-55" transform="translate(129.890625 0)"/>
    <use xlink:href="#DejaVuSans-56" transform="translate(171 0)"/>
    <use xlink:href="#DejaVuSans-3" transform="translate(223.09375 0)"/>
    <use xlink:href="#DejaVuSans-56" transform="translate(254.875 0)"/>
    <use xlink:href="#DejaVuSans-4b" transform="translate(306.96875 0)"/>
    <use xlink:href="#DejaVuSans-52" transform="translate(370.34375 0)"/>
    <use xlink:href="#DejaVuSans-5a" transform="translate(431.53125 0)"/>
    <use xlink:href="#DejaVuSans-3" transform="translate(513.3125 0)"/>
    <use xlink:href="#DejaVuSans-50" transform="translate(545.09375 0)"/>
    <use xlink:href="#DejaVuSans-48" transform="translate(642.5 0)"/>
    <use xlink:href="#DejaVuSans-47" transform="translate(704.03125 0)"/>
    <use xlink:href="#DejaVuSans-4c" transform="translate(767.515625 0)"/>
    <use xlink:href="#DejaVuSans-44" transform="translate(795.296875 0)"/>
    <use xlink:href="#DejaVuSans-51" transform="translate(856.578125 0)"/>
    <use xlink:href="#DejaVuSans-56" transform="translate(919.953125 0)"/>
    <use xlink:href="#DejaVuSans-11" transform="translate(972.046875 0)"/>
    <use xlink:href="#DejaVuSans-3" transform="translate(1003.828125 0)"/>
    <use xlink:href="#DejaVuSans-27" transform="translate(1035.609375 0)"/>
    <use xlink:href="#DejaVuSans-52" transform="translate(1112.609375 0)"/>
    <use xlink:href="#DejaVuSans-57" transform="translate(1173.796875 0)"/>
    <use xlink:href="#DejaVuSans-56" transform="translate(1213 0)"/>
    <use xlink:href="#DejaVuSans-3" transform="translate(1265.09375 0)"/>
    <use xlink:href="#DejaVuSans-56" transform="translate(1296.875 0)"/>
    <use xlink:href="#DejaVuSans-4b" transform="translate(1348.96875 0)"/>
    <use xlink:href="#DejaVuSans-52" transform="translate(1412.34375 0)"/>
    <use xlink:href="#DejaVuSans-5a" transform="translate(1473.53125 0)"/>
    <use xlink:href="#DejaVuSans-3" transform="translate(1555.3125 0)"/>
    <use xlink:href="#DejaVuSans-44" transform="translate(1587.09375 0)"/>
    <use xlink:href="#DejaVuSans-4f" transform="translate(1648.375 0)"/>
    <use xlink:href="#DejaVuSans-4f" transform="translate(1676.15625 0)"/>
    <use xlink:href="#DejaVuSans-3" transform="translate(1703.9375 0)"/>
    <use xlink:href="#DejaVuSans-57" transform="translate(1735.71875 0)"/>
    <use xlink:href="#DejaVuSans-4b" transform="translate(1774.921875 0)"/>
    <use xlink:href="#DejaVuSans-55" transform="translate(1838.296875 0)"/>
    <use xlink:href="#DejaVuSans-48" transform="translate(1877.203125 0)"/>
    <use xlink:href="#DejaVuSans-48" transform="translate(1938.734375 0)"/>
    <use xlink:href="#DejaVuSans-3" transform="translate(2000.265625 0)"/>
    <use xlink:href="#DejaVuSans-55" transform="translate(2032.046875 0)"/>
    <use xlink:href="#DejaVuSans-58" transform="translate(2073.15625 0)"/>
    <use xlink:href="#DejaVuSans-51" transform="translate(2136.53125 0)"/>
    <use xlink:href="#DejaVuSans-56" transform="translate(2199.90625 0)"/>
    <use xlink:href="#DejaVuSans-11" transform="translate(2252 0)"/>
    <use xlink:href="#DejaVuSans-3" transform="translate(2283.78125 0)"/>
    <use xlink:href="#DejaVuSans-2f" transform="translate(2315.5625 0)"/>
    <use xlink:href="#DejaVuSans-52" transform="translate(2369.53125 0)"/>
    <use xlink:href="#DejaVuSans-5a" transform="translate(2430.71875 0)"/>
    <use xlink:href="#DejaVuSans-48" transform="translate(2512.5 0)"/>
    <use xlink:href="#DejaVuSans-55" transform="translate(2574.03125 0)"/>
    <use xlink:href="#DejaVuSans-3" transform="translate(2615.140625 0)"/>
    <use xlink:href="#DejaVuSans-4c" transform="translate(2646.921875 0)"/>
    <use xlink:href="#DejaVuSans-56" transform="translate(2674.703125 0)"/>
    <use xlink:href="#DejaVuSans-3" transform="translate(2726.796875 0)"/>
    <use xlink:href="#DejaVuSans-45" transform="translate(2758.578125 0)"/>
    <use xlink:href="#DejaVuSans-48" transform="translate(2822.0625 0)"/>
    <use xlink:href="#DejaVuSans-57" transform="translate(2883.59375 0)"/>
    <use xlink:href="#DejaVuSans-57" transform="translate(2922.796875 0)"/>
    <use xlink:href="#DejaVuSans-48" transform="translate(2962 0)"/>
    <use xlink:href="#DejaVuSans-55" transform="translate(3023.53125 0)"/>
    <use xlink:href="#DejaVuSans-11" transform="translate(3055.46875 0)"/>
   </g>
  </g>
  <g id="legend_1">
   <g id="patch_20">
    <path d="M 83.484 370.425422
L 105.484 370.425422
L 105.484 362.725422
L 83.484 362.725422
z
" style="fill: #738294; stroke: #738294; stroke-linejoin: miter"/>
   </g>
   <g id="text_42">
    <!-- Baseline -->
    <g transform="translate(114.284 370.425422) scale(0.11 -0.11)">
     <use xlink:href="#DejaVuSans-25"/>
     <use xlink:href="#DejaVuSans-44" transform="translate(68.609375 0)"/>
     <use xlink:href="#DejaVuSans-56" transform="translate(129.890625 0)"/>
     <use xlink:href="#DejaVuSans-48" transform="translate(181.984375 0)"/>
     <use xlink:href="#DejaVuSans-4f" transform="translate(243.515625 0)"/>
     <use xlink:href="#DejaVuSans-4c" transform="translate(271.296875 0)"/>
     <use xlink:href="#DejaVuSans-51" transform="translate(299.078125 0)"/>
     <use xlink:href="#DejaVuSans-48" transform="translate(362.453125 0)"/>
    </g>
   </g>
   <g id="patch_21">
    <path d="M 182.922281 370.425422
L 204.922281 370.425422
L 204.922281 362.725422
L 182.922281 362.725422
z
" style="fill: #087f6e; stroke: #087f6e; stroke-linejoin: miter"/>
   </g>
   <g id="text_43">
    <!-- PR 9 -->
    <g transform="translate(213.722281 370.425422) scale(0.11 -0.11)">
     <defs>
      <path id="DejaVuSans-35" d="M 2841 2188
Q 3044 2119 3236 1894
Q 3428 1669 3622 1275
L 4263 0
L 3584 0
L 2988 1197
Q 2756 1666 2539 1819
Q 2322 1972 1947 1972
L 1259 1972
L 1259 0
L 628 0
L 628 4666
L 2053 4666
Q 2853 4666 3247 4331
Q 3641 3997 3641 3322
Q 3641 2881 3436 2590
Q 3231 2300 2841 2188
z
M 1259 4147
L 1259 2491
L 2053 2491
Q 2509 2491 2742 2702
Q 2975 2913 2975 3322
Q 2975 3731 2742 3939
Q 2509 4147 2053 4147
L 1259 4147
z
" transform="scale(0.015625)"/>
      <path id="DejaVuSans-1c" d="M 703 97
L 703 672
Q 941 559 1184 500
Q 1428 441 1663 441
Q 2288 441 2617 861
Q 2947 1281 2994 2138
Q 2813 1869 2534 1725
Q 2256 1581 1919 1581
Q 1219 1581 811 2004
Q 403 2428 403 3163
Q 403 3881 828 4315
Q 1253 4750 1959 4750
Q 2769 4750 3195 4129
Q 3622 3509 3622 2328
Q 3622 1225 3098 567
Q 2575 -91 1691 -91
Q 1453 -91 1209 -44
Q 966 3 703 97
z
M 1959 2075
Q 2384 2075 2632 2365
Q 2881 2656 2881 3163
Q 2881 3666 2632 3958
Q 2384 4250 1959 4250
Q 1534 4250 1286 3958
Q 1038 3666 1038 3163
Q 1038 2656 1286 2365
Q 1534 2075 1959 2075
z
" transform="scale(0.015625)"/>
     </defs>
     <use xlink:href="#DejaVuSans-33"/>
     <use xlink:href="#DejaVuSans-35" transform="translate(60.296875 0)"/>
     <use xlink:href="#DejaVuSans-3" transform="translate(129.78125 0)"/>
     <use xlink:href="#DejaVuSans-1c" transform="translate(161.5625 0)"/>
    </g>
   </g>
  </g>
 </g>
 <defs>
  <clipPath id="p0fd8fde0d6">
   <rect x="120.96" y="89.424" width="252" height="221.616"/>
  </clipPath>
  <clipPath id="pa6c34d9376">
   <rect x="428.4" y="89.424" width="252" height="221.616"/>
  </clipPath>
  <clipPath id="p09c5febd32">
   <rect x="735.84" y="89.424" width="252" height="221.616"/>
  </clipPath>
 </defs>
</svg>
